<svg width="512" height="512" viewBox="0 0 512 512" fill="none" xmlns="http://www.w3.org/2000/svg">
<rect width="512" height="512" rx="12" fill="url(#paint0_linear)"/>
<path fill-rule="evenodd" clip-rule="evenodd" d="M339.096 247.991C351.475 247.533 362.938 252.576 370.274 262.204C372.108 264.955 371.649 268.623 369.357 270.457C366.147 273.208 346.432 288.338 346.432 288.338C344.598 289.714 340.93 289.714 339.096 288.338C339.096 288.338 331.302 282.378 323.966 282.837C311.128 283.754 301.5 294.299 302.417 307.137C302.875 311.722 304.709 314.931 304.709 314.931C306.084 317.224 305.167 320.433 303.333 321.808L287.286 334.188C285.452 335.563 281.784 336.022 279.492 334.646C279.492 334.646 273.531 331.437 267.571 331.895C254.733 332.812 245.105 343.358 246.022 356.195V358.488C246.939 360.78 245.563 363.99 243.271 364.907C243.271 364.907 243.271 364.907 241.437 365.824C232.267 370.409 217.595 374.535 217.595 374.535C215.303 374.994 212.093 374.077 210.259 372.243C210.259 372.243 200.631 358.946 189.627 359.405C179.082 359.863 170.829 373.618 170.829 373.618C169.453 375.911 166.244 377.286 163.952 376.828C163.952 376.828 152.948 374.535 145.153 371.784C139.651 369.95 132.774 366.741 132.774 366.741C130.482 365.824 129.565 363.073 130.482 360.78C130.482 360.78 132.774 355.737 132.774 350.694C131.857 337.856 121.312 328.227 108.474 329.144C102.055 329.603 96.553 333.729 96.553 333.729C94.719 335.105 91.5096 334.646 90.1341 332.812C90.1341 332.812 80.5058 319.974 75.9208 310.805L75.4623 309.429C75.0038 308.054 75.9208 305.303 77.7548 303.927C77.7548 303.927 88.3001 294.299 87.8417 284.671C86.9247 272.291 68.1264 264.497 68.1264 264.497C65.834 263.121 64 260.37 64 257.619L66.2925 231.027C66.751 228.734 68.5849 226.9 70.8774 226.9H73.1699C86.0077 225.983 95.636 215.438 94.719 202.6C94.2606 195.723 88.7586 188.845 88.7586 188.845C86.9247 187.47 86.9247 184.26 88.3001 181.968C88.3001 181.968 91.5096 177.383 94.719 173.715C97.9285 170.047 102.055 165.921 102.055 165.921C103.889 164.087 107.098 164.087 108.932 165.921C108.932 165.921 117.185 173.257 125.897 172.798C138.734 171.881 148.363 161.336 147.446 148.498C147.446 145.289 146.529 143.913 146.529 143.913C145.612 141.621 146.987 138.87 149.28 138.411L174.955 133.826C177.248 133.368 180.457 135.202 181.833 137.494C181.833 137.494 191.461 155.834 203.84 154.917C214.844 154.458 223.097 139.787 223.097 139.787C224.473 137.494 227.224 136.119 229.975 136.119L251.524 138.411C253.816 138.87 257.484 139.328 259.318 139.787L260.235 141.162C261.152 142.538 261.611 143.913 261.611 145.747C260.694 154.458 257.026 162.711 250.607 169.13C244.188 175.091 235.935 178.759 227.224 179.217H225.39C223.556 179.217 219.888 178.759 217.137 178.759L195.588 176.925C193.295 176.925 189.169 176.466 186.418 176.466C186.418 176.466 185.501 176.466 182.75 176.466C161.659 177.842 141.944 187.011 127.731 202.6C113.517 218.189 106.181 238.363 107.098 259.453C108.015 281.003 117.185 300.718 133.232 315.39C149.28 330.061 169.912 337.397 191.461 336.022C191.92 336.022 194.212 335.563 196.505 335.105L228.599 324.101C230.892 322.725 234.559 320.891 236.393 319.058L315.254 258.078C317.088 256.702 320.756 254.41 323.049 253.034C322.59 253.493 331.302 248.45 339.096 247.991ZM444.549 261.287C444.549 261.287 427.127 270.916 427.585 283.295C428.044 290.172 433.087 296.133 433.546 297.05C435.38 298.884 435.38 302.093 434.004 304.386C434.004 304.386 428.502 313.097 423.459 318.599C419.332 323.184 414.289 327.31 414.289 327.31C412.455 328.686 408.787 329.144 406.494 328.227C406.494 328.227 400.534 325.018 394.574 325.476C381.736 326.393 372.107 336.939 373.024 349.777C373.024 352.528 373.483 353.445 373.483 353.445C374.4 355.737 373.483 358.946 371.19 360.78L354.685 373.618C353.768 374.535 352.392 374.994 351.475 375.911C350.558 376.828 349.641 377.286 349.183 377.745C348.266 378.662 346.89 378.203 345.973 377.286C345.056 376.369 343.681 373.618 342.764 371.326C342.764 371.326 335.887 357.112 337.262 347.026C338.637 336.939 343.681 327.769 351.934 321.808C371.19 307.137 384.028 297.05 388.155 293.84C397.325 286.504 406.036 268.623 405.119 251.201C403.285 220.94 377.609 198.015 347.349 199.391C337.72 199.849 329.009 202.6 323.507 206.268C320.298 208.561 288.662 232.861 235.477 274.125C229.516 278.71 222.18 281.461 214.386 281.92C201.548 282.837 185.501 269.999 185.501 269.999C183.667 268.623 181.833 266.789 181.374 266.789C181.374 266.331 180.916 265.872 180.916 265.414C180.916 264.955 181.374 261.746 181.833 261.287C182.291 260.829 184.125 259.453 185.959 258.078C186.418 258.078 186.418 257.619 186.876 257.619L204.757 243.865C206.591 242.489 210.259 242.489 212.093 243.865C212.093 243.865 219.888 249.825 227.224 249.367C240.061 248.45 249.69 237.904 248.773 225.066C248.314 220.481 246.939 217.272 246.939 217.272C245.563 214.98 246.48 211.77 248.314 210.395L268.947 194.347C270.78 192.972 274.448 192.972 276.282 194.347C276.282 194.347 284.077 199.849 291.413 199.849C304.25 198.932 313.879 188.387 312.962 175.549C312.962 171.881 312.045 169.589 312.045 169.589C311.128 167.296 312.045 164.545 314.337 163.628C314.337 163.628 331.302 157.668 344.598 156.751C348.266 156.751 350.558 156.751 350.558 156.751C353.309 156.751 356.06 158.585 357.436 160.877C357.436 160.877 367.064 178.3 379.443 177.842C386.779 177.383 393.198 171.423 393.198 171.423C395.032 169.589 398.242 169.589 400.534 170.964C400.534 170.964 409.704 176.466 415.206 181.51C417.957 183.802 419.791 185.636 419.791 185.636C421.625 187.47 421.625 190.679 420.249 192.513C420.249 192.513 415.206 199.849 415.664 206.727C416.581 219.564 427.127 229.193 439.964 228.276H441.34C442.715 227.817 444.549 229.651 445.466 231.944C445.466 231.944 447.3 241.114 447.759 247.991C447.759 251.659 447.759 254.41 447.759 254.41C448.676 257.161 446.842 260.37 444.549 261.287Z" fill="white"/>
<defs>
<linearGradient id="paint0_linear" x1="326.736" y1="-31.8535" x2="-75.94" y2="407.602" gradientUnits="userSpaceOnUse">
<stop stop-color="#0055D6"/>
<stop offset="1" stop-color="#62D0FF"/>
</linearGradient>
</defs>
</svg>
