<svg width="694" height="83" viewBox="0 0 694 83" fill="none" xmlns="http://www.w3.org/2000/svg">
<path d="M152.028 77.0834C136.345 78.2214 107.961 78.623 96.9195 78.556C96.3437 78.556 95.8695 78.0875 95.8695 77.5185V72.4646C95.8695 71.8622 96.3437 71.3936 96.9534 71.4271C97.9018 71.4605 98.9856 71.494 99.9679 71.494C100.171 71.494 100.374 71.4271 100.51 71.3267C105.557 68.1136 110.4 64.365 114.736 60.6165H92.8889C92.3131 60.6165 91.8389 60.1479 91.8389 59.5789V54.7928C91.8389 54.2238 92.3131 53.7552 92.8889 53.7552H162.223C162.799 53.7552 163.273 54.2238 163.273 54.7928V59.5789C163.273 60.1479 162.799 60.6165 162.223 60.6165H126.726C122.526 64.2311 117.208 68.214 112.229 71.494C122.052 71.3936 133.399 71.2262 143.221 70.8581C143.221 70.8581 139.868 68.5822 137.937 67.3103C137.26 66.8418 137.124 65.8711 137.7 65.2687C138.649 64.2646 139.969 62.8254 140.816 61.9552C141.257 61.4867 141.968 61.3862 142.51 61.7209C147.59 64.8001 156.769 71.3936 162.257 75.5773C163.002 76.1462 163.069 77.2173 162.426 77.8867C161.511 78.8238 160.258 80.0622 159.411 80.9324C158.869 81.5014 157.989 81.5348 157.345 81.0662L152.028 77.0834ZM131.4 10.7805V14.8638H152.671C158.294 14.8638 162.832 19.3822 162.832 24.9046V32.2679C162.832 32.8369 162.358 33.3054 161.782 33.3054H156.397C155.821 33.3054 155.347 32.8369 155.347 32.2679V25.1054C155.347 23.2311 153.823 21.725 151.926 21.725H131.4V39.0622C131.4 39.6311 130.926 40.0997 130.35 40.0997H124.761C124.186 40.0997 123.711 39.6311 123.711 39.0622V21.7585H103.287C101.39 21.7585 99.8663 23.2646 99.8663 25.1389V32.3014C99.8663 32.8703 99.3921 33.3389 98.8163 33.3389H93.4308C92.855 33.3389 92.3808 32.8703 92.3808 32.3014V24.9381C92.3808 19.3822 96.9195 14.8973 102.542 14.8973H123.711V10.7805H97.6308C97.055 10.7805 96.5808 10.312 96.5808 9.74298V4.95686C96.5808 4.38788 97.055 3.91931 97.6308 3.91931H157.921C158.497 3.91931 158.971 4.38788 158.971 4.95686V9.74298C158.971 10.312 158.497 10.7805 157.921 10.7805H131.4ZM98.2066 48.0654V43.2793C98.2066 42.7103 98.6808 42.2418 99.2566 42.2418H156.058C156.634 42.2418 157.108 42.7103 157.108 43.2793V48.0654C157.108 48.6344 156.634 49.103 156.058 49.103H99.2905C98.6808 49.103 98.2066 48.6344 98.2066 48.0654ZM103.253 29.2891V25.4401C103.253 24.8711 103.728 24.4026 104.303 24.4026H119.308C119.884 24.4026 120.358 24.8711 120.358 25.4401V29.3226C120.358 29.8916 119.884 30.3601 119.308 30.3601H104.303C103.728 30.3601 103.253 29.8916 103.253 29.2891ZM103.253 37.9911V34.1087C103.253 33.5397 103.728 33.0711 104.303 33.0711H119.308C119.884 33.0711 120.358 33.5397 120.358 34.1087V37.9911C120.358 38.5601 119.884 39.0287 119.308 39.0287H104.303C103.728 39.0622 103.253 38.5936 103.253 37.9911ZM134.618 29.2891V25.4401C134.618 24.8711 135.092 24.4026 135.668 24.4026H150.876C151.452 24.4026 151.926 24.8711 151.926 25.4401V29.3226C151.926 29.8916 151.452 30.3601 150.876 30.3601H135.668C135.092 30.3601 134.618 29.8916 134.618 29.2891ZM134.618 37.9911V34.1087C134.618 33.5397 135.092 33.0711 135.668 33.0711H150.876C151.452 33.0711 151.926 33.5397 151.926 34.1087V37.9911C151.926 38.5601 151.452 39.0287 150.876 39.0287H135.668C135.092 39.0622 134.618 38.5936 134.618 37.9911Z" fill="white"/>
<path d="M344.516 75.7112C337.742 67.21 335.676 56.2655 335.676 44.6516V19.081C335.676 11.5169 329.444 5.35858 321.789 5.35858H301.263C300.721 5.35858 300.315 5.79368 300.315 6.29572V11.7178C300.315 12.2533 300.755 12.6549 301.263 12.6549H309.087V36.2843H299.874C299.332 36.2843 298.926 36.7194 298.926 37.2214V42.8443C298.926 43.3798 299.366 43.7814 299.874 43.7814H309.087V79.9618C309.087 80.4974 309.527 80.899 310.035 80.899H315.658C316.2 80.899 316.606 80.4639 316.606 79.9618V43.8484L327.987 43.6476C328.021 58.8761 329.477 68.6157 338.182 80.7651C338.521 81.2337 339.165 81.3006 339.571 80.9659L344.381 77.05C344.787 76.7153 344.821 76.1129 344.516 75.7112ZM316.606 12.6884H320.298C324.532 12.6884 327.953 16.0688 327.953 20.2525V36.1504L316.573 36.3512V12.6884H316.606Z" fill="white"/>
<path d="M293.168 49.9064H274.776C273.015 49.9064 271.626 51.3121 271.626 53.0191V73.7701C271.626 75.5105 273.049 76.8828 274.776 76.8828H293.1C294.895 76.8828 296.352 75.4436 296.352 73.6697V53.0526C296.352 51.3456 294.929 49.9064 293.168 49.9064ZM288.832 69.8542H279.111V57.0019H288.832V69.8542Z" fill="white"/>
<path d="M297.673 11.0819H288.087V1.40925C288.087 0.873739 287.647 0.472107 287.139 0.472107H281.55C281.008 0.472107 280.602 0.907209 280.602 1.40925V11.0484H270.745C270.203 11.0484 269.797 11.4835 269.797 11.9856V17.3407C269.797 17.8762 270.237 18.2778 270.745 18.2778H297.673C298.215 18.2778 298.621 17.8427 298.621 17.3407V11.9856C298.655 11.4835 298.215 11.0819 297.673 11.0819Z" fill="white"/>
<path d="M295.573 24.0012H272.744C272.202 24.0012 271.795 24.4363 271.795 24.9383V30.2934C271.795 30.8289 272.236 31.2305 272.744 31.2305H295.573C296.115 31.2305 296.521 30.7954 296.521 30.2934V24.9383C296.521 24.4363 296.115 24.0012 295.573 24.0012Z" fill="white"/>
<path d="M295.573 36.9538H272.744C272.202 36.9538 271.795 37.3889 271.795 37.8909V43.246C271.795 43.7815 272.236 44.1832 272.744 44.1832H295.573C296.115 44.1832 296.521 43.7481 296.521 43.246V37.8909C296.521 37.3889 296.115 36.9538 295.573 36.9538Z" fill="white"/>
<path d="M392.681 9.97736H430.481C430.989 9.97736 431.429 10.379 431.429 10.9145V16.6378C431.429 17.1398 431.023 17.5749 430.481 17.5749H389.26C387.702 20.8214 385.974 24.001 384.044 26.9798H409.244C416.729 26.9798 422.826 32.9708 422.826 40.401V65.7039C422.826 73.5692 416.831 80.33 407.042 80.5978H401.86C401.352 80.5978 400.911 80.1961 400.911 79.6606V74.1047C400.911 73.6027 401.318 73.1676 401.86 73.1676H405.484C412.123 72.7659 414.765 70.6574 414.765 66.6076V63.7627H381.029V80.3969C381.029 80.899 380.623 81.3341 380.081 81.3341H373.916C373.408 81.3341 372.968 80.9325 372.968 80.3969V41.7733C369.344 45.7227 365.449 49.3374 361.249 52.6174C360.842 52.9186 360.266 52.8516 359.928 52.4835L355.626 47.2957C355.287 46.8941 355.355 46.2916 355.762 45.9904C365.11 38.5602 373.679 28.8206 379.945 17.6084H359.25C358.742 17.6084 358.302 17.2067 358.302 16.6712V10.9145C358.302 10.4125 358.708 9.97736 359.25 9.97736H383.705C385.06 7.06552 386.144 4.12022 387.092 1.04103C387.228 0.572462 387.736 0.271238 388.244 0.405115L394.544 2.01165C395.086 2.14552 395.391 2.7145 395.187 3.21654C394.374 5.5594 393.562 7.83532 392.681 9.97736ZM381.029 42.041H414.765V39.9325C414.765 36.8867 412.258 34.4435 409.21 34.4435H381.029V42.041ZM381.029 56.7006H414.765V49.1031H381.029V56.7006Z" fill="white"/>
<path d="M521.12 73.9374C515.26 70.6239 510.45 66.775 506.555 62.5913C506.521 62.5578 506.521 62.4909 506.555 62.4574C510.687 59.6125 515.429 55.6966 518.647 52.6509C519.054 52.2493 519.087 51.6133 518.681 51.2117L515.124 47.4966C514.718 47.0615 514.007 47.0615 513.6 47.4966C510.179 51.1448 506.657 54.0231 502.152 56.868C502.118 56.9015 502.05 56.868 502.016 56.8346C499.137 52.6509 496.97 48.166 495.615 43.6476C495.581 43.5807 495.649 43.5137 495.716 43.5137H511.907C513.736 43.5137 515.192 42.0746 515.192 40.2672V12.8223C515.192 8.23701 511.433 4.52191 506.792 4.52191H478.375C477.799 4.52191 477.325 4.99048 477.325 5.55946V73.6362C477.325 73.6697 477.291 73.7031 477.257 73.7366L474.818 74.4729C474.242 74.6403 473.937 75.2762 474.141 75.8452L476.207 81.0664C476.41 81.5684 476.952 81.8362 477.494 81.6688C483.963 79.7611 493.887 75.9121 499.374 73.2346C499.883 73.0003 500.12 72.3643 499.849 71.8623L497.512 66.9423C497.274 66.4068 496.631 66.206 496.123 66.4403C493.007 67.9129 489.213 69.4525 485.284 70.9252C485.216 70.9586 485.149 70.8917 485.149 70.8248V43.5137C485.149 43.4468 485.183 43.4133 485.25 43.4133H487.554C487.587 43.4133 487.621 43.4468 487.655 43.4803C493.142 59.0435 499.171 69.6199 516.886 80.6313C517.394 80.9325 518.037 80.7986 518.342 80.2966L521.424 75.3097C521.831 74.8745 521.628 74.2052 521.12 73.9374ZM485.216 12.0525C485.216 11.9856 485.25 11.9521 485.318 11.9521H504.76C506.284 11.9521 507.504 13.157 507.504 14.6631V20.0182C507.504 20.0852 507.47 20.1186 507.402 20.1186H485.318C485.25 20.1186 485.216 20.0852 485.216 20.0182V12.0525ZM485.318 36.0501C485.25 36.0501 485.216 36.0166 485.216 35.9497V27.4484C485.216 27.3815 485.25 27.348 485.318 27.348H507.402C507.47 27.348 507.504 27.3815 507.504 27.4484V35.9497C507.504 36.0166 507.47 36.0501 507.402 36.0501H485.318Z" fill="white"/>
<path d="M465.978 31.6989C465.978 31.6654 469.5 21.792 472.311 13.8263C474.005 9.00668 470.415 3.98627 465.232 3.98627H449.516C448.94 3.98627 448.466 4.45484 448.466 5.02382V80.5642C448.466 81.1332 448.94 81.6018 449.516 81.6018H455.308C455.884 81.6018 456.358 81.1332 456.358 80.5642V64.3985H456.392H463.336C471.871 64.3985 474.14 57.7716 474.14 50.6426C474.14 44.0157 470.923 38.694 465.978 31.6989ZM456.697 56.9014H456.392H456.358V11.7177C456.358 11.6508 456.392 11.6173 456.46 11.6173H463.844C464.487 11.6173 464.961 12.2532 464.758 12.8557L457.882 32.703C457.781 33.0377 457.849 33.4059 458.052 33.7071C463.302 40.0663 466.113 46.2916 466.113 50.0067C466.079 55.2614 465.436 56.7006 456.697 56.9014Z" fill="white"/>
<path d="M539.546 42.5431L535.583 37.4223C535.278 37.0206 535.346 36.4182 535.752 36.117C548.048 26.4443 554.483 16.939 559.801 2.0786C559.97 1.57655 560.512 1.34227 561.02 1.50962L566.778 3.45084C567.252 3.61819 567.523 4.12023 567.388 4.62227C562.409 20.3863 554.246 32.3684 540.935 42.7439C540.46 43.0451 539.851 42.9782 539.546 42.5431ZM555.804 70.0214C567.083 69.7537 578.701 69.0174 588.151 68.3145C584.527 63.2606 580.699 58.1398 577.21 53.6884C576.872 53.2868 576.973 52.6843 577.38 52.3496L582.257 48.7684C582.664 48.4672 583.273 48.5341 583.578 48.9357C590.623 57.9725 598.075 68.0802 603.562 76.3137C603.833 76.7488 603.731 77.3178 603.291 77.619L597.906 81.1668C597.465 81.468 596.856 81.3341 596.585 80.899L592.994 75.3765C578.057 76.7153 557.328 77.7863 541.578 77.9872C541.07 77.9872 540.664 77.619 540.63 77.117L540.223 71.2263C540.189 70.6908 540.63 70.2223 541.172 70.2223H545.643C554.449 58.7757 560.952 47.3292 566.88 33.6068C567.083 33.1382 567.659 32.9039 568.133 33.1047L574.162 35.7153C574.636 35.9161 574.873 36.4851 574.67 36.9537C569.183 49.6386 563.222 59.9137 555.804 70.0214ZM607.931 38.4933L603.698 43.7145C603.359 44.1161 602.749 44.1831 602.343 43.8484C589.675 33.3725 580.936 20.4198 576.025 3.91941C575.889 3.45084 576.16 2.9488 576.635 2.78145L582.359 0.77329C582.867 0.605943 583.443 0.873698 583.578 1.40921C588.252 16.939 594.959 26.4108 607.796 37.188C608.168 37.5227 608.236 38.0917 607.931 38.4933Z" fill="white"/>
<path d="M627 26.1431V20.788C627 20.2525 627.44 19.8508 627.948 19.8508H678.924C679.466 19.8508 679.873 20.2859 679.873 20.788V26.1431C679.873 26.6786 679.432 27.0802 678.924 27.0802H627.948C627.44 27.0802 627 26.6786 627 26.1431ZM678.179 72.9333C683.937 72.9333 685.326 68.348 685.529 65.637C686.105 49.0696 686.105 34.2762 686.037 17.2068C686.037 14.4288 683.734 12.1864 680.923 12.1864H631.166C630.624 12.1864 630.218 11.7513 630.218 11.2492V5.89411C630.218 5.3586 630.658 4.95697 631.166 4.95697H681.532C688.408 4.95697 693.997 10.4794 693.963 17.2737C693.963 37.2549 693.963 51.5129 693.523 64.8672C693.15 74.3725 688.374 80.397 677.942 80.397H668.526C667.984 80.397 667.577 79.9619 667.577 79.4598V73.9374C667.577 73.4019 668.018 73.0002 668.526 73.0002H678.179V72.9333ZM673.64 37.9578V62.1227C673.64 64.3986 671.777 66.2059 669.508 66.2059H637.365C635.095 66.2059 633.232 64.3651 633.232 62.1227V38.8615C633.232 36.619 635.095 34.7782 637.365 34.7782H670.457C672.218 34.7782 673.64 36.2174 673.64 37.9578ZM641.124 58.7757H665.782V42.2084H641.124V58.7757Z" fill="white"/>
<path d="M34.8341 13.7931H70.9745C71.4825 13.7931 71.9229 13.358 71.9229 12.8559V7.09919C71.9229 6.59715 71.4825 6.16205 70.9745 6.16205H34.8341C34.3261 6.16205 33.8857 6.59715 33.8857 7.09919V12.8225C33.8857 13.358 34.3261 13.7931 34.8341 13.7931Z" fill="white"/>
<path d="M6.31486 27.917C6.65357 28.3187 7.29711 28.3521 7.6697 27.984C15.4261 20.855 21.8616 12.9897 26.5697 4.82316C26.8407 4.38806 26.6713 3.81908 26.1971 3.55132L20.981 0.572549C20.5068 0.304794 19.931 0.472141 19.6939 0.940712C15.5278 8.23704 9.5326 15.7677 2.28421 21.8591C1.87776 22.1938 1.84389 22.7962 2.1826 23.1979L6.31486 27.917Z" fill="white"/>
<path d="M28.3647 23.064L23.1824 20.4534C22.7082 20.2191 22.1324 20.4199 21.8953 20.855C16.3405 31.4648 9.39695 39.9995 1.30179 46.9611C0.895338 47.2958 0.861467 47.8648 1.20018 48.2664L5.19695 52.9856C5.53566 53.3873 6.14534 53.4542 6.55179 53.086C8.68566 51.2452 10.7518 49.2036 12.8857 46.9277V80.8656C12.8857 81.3677 13.326 81.8028 13.834 81.8028H19.8292C20.3373 81.8028 20.7776 81.3677 20.7776 80.8656V37.3554C23.7244 33.3056 26.4002 28.8877 28.7711 24.3024C29.0082 23.8338 28.8389 23.2983 28.3647 23.064Z" fill="white"/>
<path d="M75.1743 30.6281H30.6339C30.1259 30.6281 29.6855 31.0632 29.6855 31.5653V37.2885C29.6855 37.7906 30.1259 38.2257 30.6339 38.2257H37.5436H54.8855H57.4597V52.6844V64.633V66.9424C57.121 68.9506 55.9355 70.691 54.2759 71.762C53.1243 72.5653 51.7017 73.0004 50.2114 73.0004H44.0468C43.5388 73.0004 43.0985 73.4355 43.0985 73.9375V79.6608C43.0985 80.1963 43.5388 80.5979 44.0468 80.5979H50.2114C50.2452 80.5979 50.2791 80.5979 50.3468 80.5979C58.6452 80.5979 65.3855 73.9375 65.3855 65.7375C65.3855 65.6706 65.3855 65.5702 65.3855 65.5032V38.2257H71.1097H75.1743C75.6823 38.2257 76.1226 37.7906 76.1226 37.2885V31.5653C76.1226 31.0632 75.7162 30.6281 75.1743 30.6281Z" fill="white"/>
<path d="M252.353 75.4101C244.394 72.8999 235.858 70.624 226.916 68.6828C226.408 68.5824 225.9 68.8501 225.731 69.3187C225.29 70.4232 224.545 72.3979 224.071 73.6028C223.868 74.1718 224.173 74.8077 224.782 74.9416C232.539 76.9163 241.853 79.5603 250.05 82.0036C250.558 82.171 251.134 81.8697 251.303 81.3677L252.997 76.7489C253.2 76.1799 252.895 75.5775 252.353 75.4101Z" fill="white"/>
<path d="M248.56 35.4477L250.389 30.5277C250.626 29.9252 250.22 29.2558 249.576 29.1554C239.618 27.7162 232.573 24.1015 228.204 19.6166C228.745 18.5791 229.152 17.8093 229.558 16.5709C229.762 16.002 229.423 15.3995 228.847 15.2656L223.665 13.8599C223.157 13.726 222.615 13.9938 222.412 14.4958C219.194 23.7668 212.318 26.4109 199.142 28.1848C198.533 28.2517 198.126 28.8877 198.295 29.4901L199.616 33.975C199.752 34.477 200.26 34.7783 200.768 34.7113C212.25 33.0044 219.499 29.9252 224.478 24.8379C229.525 30.0256 236.468 33.9415 247.408 36.0501C247.916 36.184 248.391 35.9162 248.56 35.4477Z" fill="white"/>
<path d="M206.932 69.4526C206.729 68.9505 206.153 68.7162 205.645 68.8836C197.686 71.7285 188.811 73.6697 180.547 75.0754C179.971 75.1758 179.565 75.7448 179.734 76.3138L180.886 81.0664C181.021 81.5685 181.495 81.9032 182.037 81.8362C190.674 80.6313 200.192 78.0207 208.287 75.3432C208.863 75.1424 209.134 74.5399 208.897 73.9709L206.932 69.4526Z" fill="white"/>
<path d="M182.545 34.0084C182.783 34.5104 183.392 34.7112 183.9 34.477C189.387 31.9333 197.042 27.6157 201.547 24.4696C202.021 24.1349 202.123 23.4655 201.75 22.997L198.465 18.8468C198.126 18.4117 197.482 18.3112 197.042 18.6459C192.571 22.0263 186.508 25.1055 180.547 27.917C180.039 28.1512 179.802 28.7872 180.073 29.2892C180.75 30.561 181.902 32.8035 182.545 34.0084Z" fill="white"/>
<path d="M183.629 8.97329C187.965 10.9145 191.724 12.7219 196.162 15.0982C196.636 15.3659 197.245 15.1986 197.55 14.73L200.429 9.97737C200.734 9.47533 200.565 8.83942 200.023 8.57166C195.484 6.16186 191.352 4.22064 186.949 2.58064C186.474 2.41329 185.933 2.61411 185.695 3.04921C185.052 4.18717 183.866 6.32921 183.155 7.60105C182.884 8.10309 183.087 8.73901 183.629 8.97329Z" fill="white"/>
<path d="M197.144 35.6149C192.673 35.6149 189.015 39.1962 189.015 43.6476V65.0345C189.015 66.7415 190.403 68.1137 192.131 68.1137H240.736C242.497 68.1137 243.886 66.708 243.886 65.0011V43.6476C243.886 39.1962 240.228 35.6149 235.757 35.6149H197.144ZM236.061 61.788H196.907V59.1774H236.061V61.788ZM236.061 53.1864H196.974C196.94 53.1864 196.94 53.1529 196.94 53.1529V50.6092C196.94 50.5757 196.974 50.5757 196.974 50.5757H236.028C236.061 50.5757 236.061 50.6092 236.061 50.6092V53.1864ZM236.061 44.5178C236.061 44.5513 236.028 44.5513 236.028 44.5513H196.974C196.94 44.5513 196.94 44.5178 196.94 44.5178C196.94 43.0786 198.126 41.9406 199.549 41.9406H233.453C234.876 41.9406 236.061 43.1121 236.061 44.5178Z" fill="white"/>
<path d="M243.073 5.82717H219.6C219.532 5.82717 219.499 5.76023 219.532 5.69329C219.973 4.82309 220.311 3.91941 220.65 3.08268C220.853 2.54717 220.582 1.94472 220.041 1.77737L215.231 0.103905C214.723 -0.063442 214.181 0.170844 213.944 0.639415C211.403 6.2288 207.407 12.521 202.292 17.6419C201.852 18.077 201.92 18.7798 202.394 19.148L206.526 22.3945C206.932 22.7292 207.542 22.6957 207.915 22.3276C210.862 19.3153 213.537 15.9684 215.671 12.588C215.671 12.5545 215.705 12.5545 215.739 12.5545H234.707H241.684C242.463 12.5545 243.344 13.0231 242.565 15.1651L240.16 20.8884C239.991 21.29 240.295 21.7251 240.736 21.7251L245.986 23.3986C246.189 23.3986 246.358 23.2647 246.426 23.0974C246.9 21.859 249.034 15.8345 249.813 12.5545C250.795 8.70554 248.187 5.76023 243.073 5.82717Z" fill="white"/>
</svg>
