<svg width="695" height="191" viewBox="0 0 695 191" fill="none" xmlns="http://www.w3.org/2000/svg">
<path fill-rule="evenodd" clip-rule="evenodd" d="M137.213 91.5164C143.371 91.2883 149.072 93.7969 152.721 98.586C153.633 99.9543 153.405 101.779 152.265 102.691C150.669 104.059 140.862 111.585 140.862 111.585C139.95 112.269 138.126 112.269 137.213 111.585C137.213 111.585 133.337 108.62 129.688 108.848C123.302 109.304 118.513 114.55 118.969 120.935C119.197 123.216 120.109 124.812 120.109 124.812C120.794 125.952 120.338 127.549 119.425 128.233L111.443 134.39C110.531 135.074 108.707 135.302 107.567 134.618C107.567 134.618 104.602 133.022 101.637 133.25C95.2517 133.706 90.4626 138.951 90.9187 145.337V146.477C91.3748 147.617 90.6907 149.214 89.5504 149.67C89.5504 149.67 89.5504 149.67 88.6382 150.126C84.0772 152.406 76.7795 154.459 76.7795 154.459C75.6392 154.687 74.0428 154.231 73.1306 153.319C73.1306 153.319 68.3415 146.705 62.8683 146.933C57.623 147.161 53.5181 154.003 53.5181 154.003C52.8339 155.143 51.2376 155.827 50.0973 155.599C50.0973 155.599 44.6241 154.459 40.7472 153.091C38.0105 152.178 34.5897 150.582 34.5897 150.582C33.4495 150.126 32.9934 148.758 33.4495 147.617C33.4495 147.617 34.5897 145.109 34.5897 142.6C34.1336 136.215 28.8884 131.426 22.5029 131.882C19.3102 132.11 16.5736 134.162 16.5736 134.162C15.6614 134.846 14.065 134.618 13.3808 133.706C13.3808 133.706 8.59173 127.321 6.3112 122.76L6.08315 122.075C5.8551 121.391 6.3112 120.023 7.22342 119.339C7.22342 119.339 12.4686 114.55 12.2406 109.761C11.7845 103.603 2.43431 99.7263 2.43431 99.7263C1.29405 99.0421 0.381836 97.6738 0.381836 96.3055L1.5221 83.0784C1.75015 81.9382 2.66236 81.026 3.80263 81.026H4.94289C11.3284 80.5699 16.1175 75.3247 15.6614 68.9392C15.4333 65.5184 12.6967 62.0976 12.6967 62.0976C11.7845 61.4134 11.7845 59.8171 12.4686 58.6768C12.4686 58.6768 14.065 56.3963 15.6614 54.5719C17.2577 52.7474 19.3102 50.695 19.3102 50.695C20.2224 49.7828 21.8188 49.7828 22.731 50.695C22.731 50.695 26.8359 54.3438 31.1689 54.1158C37.5544 53.6597 42.3435 48.4144 41.8874 42.029C41.8874 40.4326 41.4313 39.7484 41.4313 39.7484C40.9752 38.6082 41.6594 37.2399 42.7996 37.0118L55.5706 34.7313C56.7108 34.5032 58.3072 35.4154 58.9914 36.5557C58.9914 36.5557 63.7805 45.6778 69.9379 45.2217C75.4112 44.9937 79.5161 37.696 79.5161 37.696C80.2003 36.5557 81.5686 35.8715 82.9369 35.8715L93.6554 37.0118C94.7956 37.2399 96.62 37.4679 97.5323 37.696L97.9884 38.3801C98.4445 39.0643 98.6725 39.7484 98.6725 40.6607C98.2164 44.9937 96.392 49.0986 93.1993 52.2913C90.0065 55.256 85.9016 57.0804 81.5686 57.3085H80.6564C79.7442 57.3085 77.9197 57.0804 76.5514 57.0804L65.8329 56.1682C64.6927 56.1682 62.6402 55.9402 61.2719 55.9402C61.2719 55.9402 60.8158 55.9402 59.4475 55.9402C48.957 56.6243 39.1508 61.1854 32.0812 68.9392C25.0115 76.693 21.3627 86.7273 21.8188 97.2177C22.2749 107.936 26.8359 117.742 34.8178 125.04C42.7996 132.338 53.062 135.987 63.7805 135.302C64.0085 135.302 65.1488 135.074 66.289 134.846L82.2527 129.373C83.393 128.689 85.2174 127.777 86.1296 126.865L125.355 96.5336C126.267 95.8494 128.091 94.7091 129.232 94.025C129.004 94.253 133.337 91.7444 137.213 91.5164ZM189.666 98.1299C189.666 98.1299 181 102.919 181.228 109.076C181.456 112.497 183.964 115.462 184.192 115.918C185.104 116.83 185.104 118.427 184.42 119.567C184.42 119.567 181.684 123.9 179.175 126.636C177.123 128.917 174.614 130.97 174.614 130.97C173.702 131.654 171.877 131.882 170.737 131.426C170.737 131.426 167.772 129.829 164.808 130.057C158.422 130.513 153.633 135.759 154.089 142.144C154.089 143.512 154.317 143.969 154.317 143.969C154.773 145.109 154.317 146.705 153.177 147.617L144.967 154.003C144.511 154.459 143.827 154.687 143.371 155.143C142.915 155.599 142.459 155.827 142.231 156.055C141.774 156.511 141.09 156.283 140.634 155.827C140.178 155.371 139.494 154.003 139.038 152.863C139.038 152.863 135.617 145.793 136.301 140.776C136.985 135.759 139.494 131.198 143.599 128.233C153.177 120.935 159.563 115.918 161.615 114.322C166.176 110.673 170.509 101.779 170.053 93.1128C169.141 78.0613 156.37 66.6587 141.318 67.3428C136.529 67.5709 132.196 68.9392 129.46 70.7636C127.863 71.9039 112.128 83.9907 85.6735 104.515C82.7088 106.796 79.06 108.164 75.1831 108.392C68.7976 108.848 60.8158 102.463 60.8158 102.463C59.9036 101.779 58.9914 100.867 58.7633 100.867C58.7633 100.638 58.5353 100.41 58.5353 100.182C58.5353 99.9543 58.7633 98.358 58.9914 98.1299C59.2194 97.9019 60.1316 97.2177 61.0438 96.5336C61.2719 96.5336 61.2719 96.3055 61.4999 96.3055L70.394 89.4639C71.3062 88.7798 73.1306 88.7798 74.0428 89.4639C74.0428 89.4639 77.9197 92.4286 81.5686 92.2006C87.954 91.7444 92.7432 86.4992 92.287 80.1138C92.059 77.8332 91.3748 76.2369 91.3748 76.2369C90.6907 75.0966 91.1468 73.5002 92.059 72.8161L102.321 64.8342C103.234 64.1501 105.058 64.1501 105.97 64.8342C105.97 64.8342 109.847 67.5709 113.496 67.5709C119.881 67.1148 124.671 61.8695 124.214 55.4841C124.214 53.6597 123.758 52.5194 123.758 52.5194C123.302 51.3791 123.758 50.0108 124.899 49.5547C124.899 49.5547 133.337 46.59 139.95 46.1339C141.774 46.1339 142.915 46.1339 142.915 46.1339C144.283 46.1339 145.651 47.0461 146.336 48.1864C146.336 48.1864 151.125 56.8524 157.282 56.6243C160.931 56.3963 164.124 53.4316 164.124 53.4316C165.036 52.5194 166.632 52.5194 167.772 53.2035C167.772 53.2035 172.334 55.9402 175.07 58.4488C176.438 59.589 177.351 60.5012 177.351 60.5012C178.263 61.4134 178.263 63.0098 177.579 63.922C177.579 63.922 175.07 67.5709 175.298 70.9917C175.754 77.3771 181 82.1662 187.385 81.7101H188.069C188.753 81.4821 189.666 82.3943 190.122 83.5345C190.122 83.5345 191.034 88.0956 191.262 91.5164C191.262 93.3408 191.262 94.7091 191.262 94.7091C191.718 96.0774 190.806 97.6738 189.666 98.1299Z" fill="url(#paint0_linear)"/>
<path d="M247.527 131.32C246.822 131.32 246.352 131.085 246.352 130.38L229.903 69.0478V68.5779C229.903 68.1079 230.138 67.8729 230.843 67.8729H239.772C240.477 67.8729 240.947 68.1079 240.947 68.8128L251.287 110.171C251.287 110.406 251.522 110.406 251.522 110.406C251.757 110.406 251.757 110.406 251.757 110.171L261.626 68.8128C261.861 68.1079 262.096 67.8729 262.801 67.8729H271.496C272.201 67.8729 272.671 68.1079 272.671 68.8128L283.245 110.171C283.245 110.406 283.48 110.406 283.48 110.406C283.715 110.406 283.715 110.406 283.715 110.171L293.819 68.8128C294.054 68.1079 294.524 67.8729 294.994 67.8729H303.454C304.394 67.8729 304.629 68.3429 304.394 69.0478L288.65 130.38C288.415 131.085 287.945 131.32 287.475 131.32H279.015C278.31 131.32 277.84 131.085 277.84 130.38L267.266 87.1419C267.266 86.9069 267.031 86.9069 267.031 86.9069C266.796 86.9069 266.796 86.9069 266.796 87.1419L256.691 130.38C256.456 131.085 256.221 131.32 255.516 131.32H247.527ZM326.483 84.322C330.242 84.322 333.532 85.027 336.587 86.2019C339.407 87.6119 341.757 89.2568 343.402 91.8416C345.047 94.1915 345.752 96.7764 345.752 99.8312V130.38C345.752 130.615 345.517 130.85 345.282 131.085C345.047 131.32 344.812 131.32 344.577 131.32H336.117C335.882 131.32 335.647 131.32 335.412 131.085C335.177 130.85 335.177 130.615 335.177 130.38V127.56C335.177 127.325 335.177 127.325 334.942 127.325C334.707 127.325 334.707 127.325 334.472 127.325C331.417 130.615 327.188 132.259 321.548 132.259C317.083 132.259 313.323 131.085 310.269 128.735C307.449 126.385 306.039 123.095 306.039 118.395C306.039 113.695 307.684 109.936 310.974 107.351C314.263 104.766 318.963 103.356 324.838 103.356H334.472C334.707 103.356 334.942 103.121 334.942 102.886V100.771C334.942 98.4213 334.237 96.5414 332.827 95.3664C331.417 93.9565 329.303 93.4865 326.483 93.4865C324.133 93.4865 322.253 93.9565 320.843 94.6615C319.433 95.3664 318.493 96.5414 318.258 97.9513C318.023 98.6563 317.553 98.8913 317.083 98.8913L308.389 97.7163C308.154 97.7163 307.919 97.4813 307.684 97.4813C307.449 97.2463 307.449 97.0114 307.449 96.7764C307.919 93.0166 309.799 89.9617 313.323 87.6119C316.848 85.497 321.313 84.322 326.483 84.322ZM324.368 123.8C327.423 123.8 329.773 123.095 331.887 121.45C334.002 119.805 334.942 117.925 334.942 115.575V111.346C334.942 111.111 334.707 110.876 334.472 110.876H326.953C323.663 110.876 321.313 111.581 319.433 112.756C317.553 113.93 316.613 115.575 316.613 117.925C316.613 119.805 317.318 121.45 318.728 122.39C320.138 123.33 322.018 123.8 324.368 123.8ZM358.441 131.32C358.206 131.32 357.971 131.32 357.736 131.085C357.501 130.85 357.501 130.615 357.501 130.38V69.0478C357.501 68.8129 357.501 68.5779 357.736 68.3429C357.971 68.1079 358.206 67.8729 358.441 67.8729H366.666C366.901 67.8729 367.136 68.1079 367.371 68.3429C367.606 68.5779 367.841 68.8129 367.841 69.0478V130.38C367.841 130.615 367.606 130.85 367.371 131.085C367.136 131.32 366.901 131.32 366.666 131.32H358.441ZM381.47 131.32C381.235 131.32 381 131.32 380.765 131.085C380.53 130.85 380.53 130.615 380.53 130.38V69.0478C380.53 68.8129 380.53 68.5779 380.765 68.3429C381 68.1079 381.235 67.8729 381.47 67.8729H389.694C389.929 67.8729 390.164 68.1079 390.399 68.3429C390.634 68.5779 390.869 68.8129 390.869 69.0478V101.711C390.869 101.946 390.869 101.946 391.104 102.181C391.339 102.181 391.339 102.181 391.574 101.946L406.143 85.732C406.613 85.262 407.083 85.027 407.553 85.027H417.188C417.893 85.027 418.128 85.262 418.128 85.732C418.128 85.9669 418.128 86.2019 417.893 86.4369L406.378 100.301C406.143 100.536 406.143 100.771 406.378 101.006L420.008 130.145C420.243 130.38 420.243 130.615 420.243 130.615C420.243 131.085 420.008 131.32 419.303 131.32H410.608C409.903 131.32 409.668 131.085 409.433 130.615L399.564 107.586C399.564 107.351 399.329 107.351 399.094 107.351C398.859 107.351 398.859 107.351 398.859 107.351L391.574 115.575C391.339 115.81 391.339 116.045 391.339 116.28V130.145C391.339 130.38 391.104 130.615 390.869 130.85C390.634 131.085 390.399 131.085 390.164 131.085H381.47V131.32ZM445.621 131.79C441.862 131.79 438.572 131.32 435.517 130.145C432.697 128.97 430.582 127.56 428.937 125.445C427.292 123.565 426.587 121.215 426.587 118.865V118.16C426.587 117.925 426.587 117.69 426.822 117.455C427.057 117.22 427.292 116.985 427.527 116.985H435.517C435.752 116.985 435.987 117.22 436.222 117.455C436.457 117.69 436.692 117.925 436.692 118.16V118.395C436.692 119.805 437.397 121.215 439.042 122.39C440.687 123.565 442.802 124.035 445.386 124.035C447.736 124.035 449.851 123.565 451.261 122.625C452.671 121.685 453.611 120.275 453.611 118.865C453.611 117.455 452.906 116.515 451.731 115.81C450.556 115.105 448.441 114.4 445.856 113.46L442.332 112.286C439.277 111.346 436.692 110.406 434.577 109.466C432.462 108.526 430.582 107.116 429.172 105.236C427.762 103.356 427.057 101.241 427.057 98.4213C427.057 94.1915 428.702 90.9017 431.992 88.3168C435.282 85.7319 439.747 84.557 445.151 84.557C448.911 84.557 451.966 85.262 454.786 86.4369C457.606 87.6119 459.721 89.2568 461.131 91.3717C462.54 93.4865 463.48 95.8364 463.48 98.4213C463.48 98.6563 463.245 98.8913 463.01 99.1262C462.775 99.3612 462.54 99.3612 462.305 99.3612H454.551C454.316 99.3612 454.081 99.3612 453.846 99.1262C453.611 98.8913 453.611 98.6563 453.611 98.4213C453.611 96.7764 452.906 95.6014 451.261 94.4265C449.851 93.2516 447.736 92.7816 444.916 92.7816C442.567 92.7816 440.687 93.2516 439.042 94.1915C437.632 95.1315 436.927 96.3064 436.927 97.7163C436.927 99.1262 437.632 100.301 439.042 101.006C440.452 101.711 442.802 102.651 446.091 103.356L447.971 103.826C451.261 104.766 453.846 105.706 455.961 106.881C458.076 107.821 459.956 109.231 461.601 111.111C463.01 112.756 463.95 115.105 463.95 117.925C463.95 122.155 462.305 125.68 458.781 128.03C455.726 130.615 451.261 131.79 445.621 131.79ZM496.379 132.024C491.914 132.024 487.919 131.085 484.394 129.44C480.87 127.56 478.285 125.21 476.405 121.92C474.525 118.63 473.585 115.105 473.585 110.876V88.5518C473.585 84.322 474.525 80.5622 476.405 77.5074C478.285 74.2176 480.87 71.8677 484.394 69.9878C487.919 68.3429 491.914 67.4029 496.379 67.4029C500.843 67.4029 504.838 68.3429 508.128 69.9878C511.418 71.6327 514.238 73.9826 516.118 77.0374C517.998 80.0923 518.938 83.6171 518.938 87.6119C518.938 87.8468 518.703 88.0818 518.468 88.3168C518.233 88.5518 517.998 88.5518 517.763 88.5518L509.538 89.0218C508.833 89.0218 508.363 88.7868 508.363 88.0818C508.363 84.557 507.188 81.7372 505.073 79.3873C502.958 77.2724 499.904 76.0975 496.379 76.0975C492.619 76.0975 489.799 77.2724 487.449 79.3873C485.099 81.5022 484.159 84.322 484.159 88.0818V111.111C484.159 114.635 485.334 117.455 487.449 119.57C489.564 121.685 492.619 122.86 496.379 122.86C500.138 122.86 502.958 121.92 505.073 119.805C507.423 117.69 508.363 114.87 508.363 111.111C508.363 110.406 508.833 110.171 509.538 110.171L517.763 110.641C517.998 110.641 518.233 110.641 518.468 110.876C518.703 111.111 518.938 111.346 518.938 111.581C518.938 115.575 517.998 119.335 516.118 122.39C514.238 125.445 511.653 127.795 508.128 129.44C504.838 131.32 500.843 132.024 496.379 132.024ZM531.627 131.32C531.392 131.32 531.157 131.32 530.922 131.085C530.687 130.85 530.687 130.615 530.687 130.38V69.0478C530.687 68.8129 530.687 68.5779 530.922 68.3429C531.157 68.1079 531.392 67.8729 531.627 67.8729H539.851C540.086 67.8729 540.321 68.1079 540.556 68.3429C540.791 68.5779 541.026 68.8129 541.026 69.0478V130.38C541.026 130.615 540.791 130.85 540.556 131.085C540.321 131.32 540.086 131.32 539.851 131.32H531.627ZM573.22 132.024C568.52 132.024 564.29 130.85 561 128.5C557.71 126.15 555.126 122.625 553.951 118.395C553.011 115.105 552.306 111.581 552.306 108.056C552.306 104.296 552.776 100.771 553.716 97.7163C555.126 93.4865 557.475 90.1967 561 87.8468C564.525 85.497 568.52 84.322 573.455 84.322C578.154 84.322 581.914 85.497 585.204 87.8468C588.494 90.1967 591.079 93.4865 592.254 97.7163C593.429 100.536 593.899 104.061 593.899 108.056C593.899 111.816 593.429 115.34 592.254 118.395C590.844 122.625 588.494 126.15 585.204 128.5C581.914 130.85 577.919 132.024 573.22 132.024ZM573.22 123.095C575.569 123.095 577.449 122.39 578.859 121.215C580.504 120.04 581.679 118.16 582.384 115.81C583.089 113.93 583.324 111.346 583.324 108.291C583.324 105.001 583.089 102.416 582.384 100.771C581.679 98.4213 580.504 96.7764 578.859 95.6014C577.214 94.4265 575.335 93.7215 572.985 93.7215C570.635 93.7215 568.755 94.4265 567.11 95.6014C565.465 96.7764 564.29 98.6563 563.585 100.771C562.88 102.886 562.645 105.471 562.645 108.291C562.645 111.111 562.88 113.695 563.585 115.81C564.29 118.16 565.465 119.805 567.11 121.215C568.755 122.39 570.87 123.095 573.22 123.095ZM632.436 86.2019C632.436 85.9669 632.437 85.732 632.672 85.497C632.906 85.262 633.141 85.027 633.376 85.027H641.601C641.836 85.027 642.071 85.262 642.306 85.497C642.541 85.732 642.776 85.9669 642.776 86.2019V130.38C642.776 130.615 642.541 130.85 642.306 131.085C642.071 131.32 641.836 131.32 641.601 131.32H633.376C633.141 131.32 632.906 131.32 632.672 131.085C632.437 130.85 632.436 130.615 632.436 130.38V127.56C632.436 127.325 632.436 127.325 632.202 127.09C631.967 127.09 631.966 127.09 631.732 127.325C629.147 130.615 625.622 132.024 620.687 132.024C615.987 132.024 612.228 130.615 609.173 128.03C606.118 125.445 604.473 121.685 604.473 116.75V86.2019C604.473 85.9669 604.473 85.732 604.708 85.497C604.943 85.262 605.178 85.027 605.413 85.027H613.638C613.872 85.027 614.107 85.262 614.342 85.497C614.577 85.732 614.812 85.9669 614.812 86.2019V113.695C614.812 116.515 615.517 118.865 616.927 120.51C618.337 122.155 620.452 123.095 623.272 123.095C626.092 123.095 628.207 122.155 629.852 120.51C631.497 118.865 632.202 116.515 632.202 113.695V86.2019H632.436ZM684.134 69.0478C684.134 68.8129 684.134 68.5779 684.369 68.3429C684.604 68.1079 684.839 67.8729 685.074 67.8729H693.298C693.533 67.8729 693.768 68.1079 694.003 68.3429C694.238 68.5779 694.473 68.8129 694.473 69.0478V130.38C694.473 130.615 694.238 130.85 694.003 131.085C693.768 131.32 693.533 131.32 693.298 131.32H685.074C684.839 131.32 684.604 131.32 684.369 131.085C684.134 130.85 684.134 130.615 684.134 130.38V127.56C684.134 127.325 684.134 127.325 683.899 127.09C683.664 127.09 683.664 127.09 683.429 127.325C680.844 130.38 677.319 132.024 673.089 132.024C668.86 132.024 665.1 130.85 662.28 128.735C659.225 126.385 657.11 123.33 655.935 119.335C654.76 116.045 654.29 112.286 654.29 108.056C654.29 103.826 654.76 100.066 655.935 97.0114C657.345 93.0166 659.46 89.9617 662.28 87.6119C665.335 85.262 668.86 84.322 673.324 84.322C677.554 84.322 680.844 85.732 683.664 88.7868C683.899 89.0218 683.899 89.0218 684.134 89.0218C684.369 89.0218 684.369 88.7868 684.369 88.5518V69.0478H684.134ZM682.019 118.63C683.429 116.045 684.134 112.756 684.134 108.056C684.134 103.356 683.429 99.8312 681.784 97.2463C680.139 94.6615 677.789 93.2516 674.969 93.2516C671.914 93.2516 669.565 94.4265 667.685 97.0114C665.805 99.5962 664.865 103.356 664.865 108.056C664.865 112.286 665.57 115.81 666.98 118.395C668.625 121.215 671.209 122.625 674.734 122.625C677.789 123.095 680.139 121.45 682.019 118.63Z" fill="#1E90FF"/>
<defs>
<linearGradient id="paint0_linear" x1="122.27" y1="27.1304" x2="38.6937" y2="170.387" gradientUnits="userSpaceOnUse">
<stop stop-color="#0055D6"/>
<stop offset="1" stop-color="#62D0FF"/>
</linearGradient>
</defs>
</svg>
