<svg width="498" height="293" viewBox="0 0 498 293" fill="none" xmlns="http://www.w3.org/2000/svg">
<path fill-rule="evenodd" clip-rule="evenodd" d="M289.406 91.5164C295.425 91.2883 300.999 93.7969 304.566 98.586C305.457 99.9543 305.234 101.779 304.12 102.691C302.559 104.059 292.973 111.585 292.973 111.585C292.081 112.269 290.297 112.269 289.406 111.585C289.406 111.585 285.616 108.62 282.048 108.848C275.806 109.304 271.124 114.55 271.57 120.935C271.793 123.216 272.685 124.812 272.685 124.812C273.354 125.952 272.908 127.549 272.016 128.233L264.213 134.39C263.321 135.074 261.538 135.302 260.423 134.618C260.423 134.618 257.525 133.022 254.627 133.25C248.384 133.706 243.702 138.951 244.148 145.337V146.477C244.594 147.617 243.925 149.214 242.811 149.67C242.811 149.67 242.811 149.67 241.919 150.126C237.46 152.406 230.326 154.459 230.326 154.459C229.211 154.687 227.651 154.231 226.759 153.319C226.759 153.319 222.077 146.705 216.726 146.933C211.599 147.161 207.586 154.003 207.586 154.003C206.917 155.143 205.356 155.827 204.242 155.599C204.242 155.599 198.891 154.459 195.101 153.091C192.426 152.178 189.081 150.582 189.081 150.582C187.967 150.126 187.521 148.758 187.967 147.617C187.967 147.617 189.081 145.109 189.081 142.6C188.636 136.215 183.508 131.426 177.266 131.882C174.144 132.11 171.469 134.162 171.469 134.162C170.577 134.846 169.017 134.618 168.348 133.706C168.348 133.706 163.666 127.321 161.437 122.76L161.214 122.075C160.991 121.391 161.437 120.023 162.328 119.339C162.328 119.339 167.456 114.55 167.233 109.761C166.787 103.603 157.647 99.7263 157.647 99.7263C156.532 99.0421 155.64 97.6738 155.64 96.3055L156.755 83.0784C156.978 81.9382 157.87 81.026 158.984 81.026H160.099C166.341 80.5699 171.023 75.3247 170.577 68.9392C170.354 65.5184 167.679 62.0976 167.679 62.0976C166.787 61.4134 166.787 59.8171 167.456 58.6768C167.456 58.6768 169.017 56.3963 170.577 54.5719C172.138 52.7474 174.144 50.695 174.144 50.695C175.036 49.7828 176.597 49.7828 177.488 50.695C177.488 50.695 181.501 54.3438 185.737 54.1158C191.98 53.6597 196.662 48.4144 196.216 42.029C196.216 40.4326 195.77 39.7484 195.77 39.7484C195.324 38.6082 195.993 37.2399 197.107 37.0118L209.592 34.7313C210.707 34.5032 212.267 35.4154 212.936 36.5557C212.936 36.5557 217.618 45.6778 223.638 45.2217C228.988 44.9937 233.001 37.696 233.001 37.696C233.67 36.5557 235.008 35.8715 236.345 35.8715L246.824 37.0118C247.938 37.2399 249.722 37.4679 250.614 37.696L251.059 38.3801C251.505 39.0643 251.728 39.7484 251.728 40.6607C251.282 44.9937 249.499 49.0986 246.378 52.2913C243.256 55.256 239.244 57.0804 235.008 57.3085H234.116C233.224 57.3085 231.441 57.0804 230.103 57.0804L219.625 56.1682C218.51 56.1682 216.503 55.9402 215.166 55.9402C215.166 55.9402 214.72 55.9402 213.382 55.9402C203.127 56.6243 193.54 61.1854 186.629 68.9392C179.718 76.693 176.151 86.7273 176.597 97.2177C177.043 107.936 181.501 117.742 189.304 125.04C197.107 132.338 207.14 135.987 217.618 135.302C217.841 135.302 218.956 135.074 220.07 134.846L235.676 129.373C236.791 128.689 238.575 127.777 239.466 126.865L277.813 96.5336C278.704 95.8494 280.488 94.7091 281.603 94.025C281.38 94.253 285.616 91.7444 289.406 91.5164ZM340.682 98.1299C340.682 98.1299 332.21 102.919 332.433 109.076C332.656 112.497 335.109 115.462 335.332 115.918C336.223 116.83 336.223 118.427 335.555 119.567C335.555 119.567 332.879 123.9 330.427 126.636C328.42 128.917 325.968 130.97 325.968 130.97C325.076 131.654 323.293 131.882 322.178 131.426C322.178 131.426 319.28 129.829 316.382 130.057C310.139 130.513 305.457 135.759 305.903 142.144C305.903 143.512 306.126 143.969 306.126 143.969C306.572 145.109 306.126 146.705 305.012 147.617L296.986 154.003C296.54 154.459 295.871 154.687 295.425 155.143C294.979 155.599 294.533 155.827 294.31 156.055C293.864 156.511 293.196 156.283 292.75 155.827C292.304 155.371 291.635 154.003 291.189 152.863C291.189 152.863 287.845 145.793 288.514 140.776C289.183 135.759 291.635 131.198 295.648 128.233C305.012 120.935 311.254 115.918 313.26 114.322C317.719 110.673 321.955 101.779 321.509 93.1128C320.617 78.0613 308.133 66.6587 293.419 67.3428C288.737 67.5709 284.501 68.9392 281.826 70.7636C280.265 71.9039 264.882 83.9907 239.021 104.515C236.122 106.796 232.555 108.164 228.765 108.392C222.523 108.848 214.72 102.463 214.72 102.463C213.828 101.779 212.936 100.867 212.713 100.867C212.713 100.638 212.49 100.41 212.49 100.182C212.49 99.9543 212.713 98.358 212.936 98.1299C213.159 97.9019 214.051 97.2177 214.943 96.5336C215.166 96.5336 215.166 96.3055 215.389 96.3055L224.083 89.4639C224.975 88.7798 226.759 88.7798 227.651 89.4639C227.651 89.4639 231.441 92.4286 235.008 92.2006C241.25 91.7444 245.932 86.4992 245.486 80.1138C245.263 77.8332 244.594 76.2369 244.594 76.2369C243.925 75.0966 244.371 73.5002 245.263 72.8161L255.295 64.8342C256.187 64.1501 257.971 64.1501 258.862 64.8342C258.862 64.8342 262.652 67.5709 266.22 67.5709C272.462 67.1148 277.144 61.8695 276.698 55.4841C276.698 53.6597 276.252 52.5194 276.252 52.5194C275.806 51.3791 276.252 50.0108 277.367 49.5547C277.367 49.5547 285.616 46.59 292.081 46.1339C293.864 46.1339 294.979 46.1339 294.979 46.1339C296.317 46.1339 297.654 47.0461 298.323 48.1864C298.323 48.1864 303.005 56.8524 309.024 56.6243C312.592 56.3963 315.713 53.4316 315.713 53.4316C316.605 52.5194 318.165 52.5194 319.28 53.2035C319.28 53.2035 323.739 55.9402 326.414 58.4488C327.752 59.589 328.643 60.5012 328.643 60.5012C329.535 61.4134 329.535 63.0098 328.866 63.922C328.866 63.922 326.414 67.5709 326.637 70.9917C327.083 77.3771 332.21 82.1662 338.453 81.7101H339.122C339.791 81.4821 340.682 82.3943 341.128 83.5345C341.128 83.5345 342.02 88.0956 342.243 91.5164C342.243 93.3408 342.243 94.7091 342.243 94.7091C342.689 96.0774 341.797 97.6738 340.682 98.1299Z" fill="url(#paint0_linear)"/>
<path d="M19.8078 292C19.0551 292 18.5534 291.75 18.5534 291L0.990723 225.75V225.25C0.990723 224.75 1.2416 224.5 1.99429 224.5H11.5283C12.281 224.5 12.7828 224.75 12.7828 225.5L23.8221 269.5C23.8221 269.75 24.073 269.75 24.073 269.75C24.3239 269.75 24.3239 269.75 24.3239 269.5L34.8615 225.5C35.1124 224.75 35.3633 224.5 36.116 224.5H45.3991C46.1518 224.5 46.6536 224.75 46.6536 225.5L57.9438 269.5C57.9438 269.75 58.1947 269.75 58.1947 269.75C58.4456 269.75 58.4456 269.75 58.4456 269.5L69.2341 225.5C69.485 224.75 69.9868 224.5 70.4885 224.5H79.5208C80.5244 224.5 80.7752 225 80.5243 225.75L63.7144 291C63.4635 291.75 62.9617 292 62.4599 292H53.4277C52.675 292 52.1732 291.75 52.1732 291L40.883 245C40.883 244.75 40.6321 244.75 40.6321 244.75C40.3812 244.75 40.3812 244.75 40.3812 245L29.5927 291C29.3418 291.75 29.0909 292 28.3382 292H19.8078ZM104.108 242C108.123 242 111.635 242.75 114.897 244C117.908 245.5 120.417 247.25 122.173 250C123.929 252.5 124.682 255.25 124.682 258.5V291C124.682 291.25 124.431 291.5 124.18 291.75C123.929 292 123.678 292 123.427 292H114.395C114.144 292 113.893 292 113.642 291.75C113.392 291.5 113.392 291.25 113.392 291V288C113.392 287.75 113.392 287.75 113.141 287.75C112.89 287.75 112.89 287.75 112.639 287.75C109.377 291.25 104.861 293 98.8397 293C94.0727 293 90.0583 291.75 86.7967 289.25C83.786 286.75 82.2806 283.25 82.2806 278.25C82.2806 273.25 84.0369 269.25 87.5494 266.5C91.0619 263.75 96.0798 262.25 102.352 262.25H112.639C112.89 262.25 113.141 262 113.141 261.75V259.5C113.141 257 112.388 255 110.883 253.75C109.377 252.25 107.119 251.75 104.108 251.75C101.599 251.75 99.5923 252.25 98.087 253C96.5816 253.75 95.578 255 95.3271 256.5C95.0762 257.25 94.5744 257.5 94.0726 257.5L84.7895 256.25C84.5387 256.25 84.2877 256 84.0368 256C83.786 255.75 83.786 255.5 83.786 255.25C84.2878 251.25 86.2949 248 90.0583 245.5C93.8218 243.25 98.5887 242 104.108 242ZM101.85 284C105.112 284 107.621 283.25 109.879 281.5C112.137 279.75 113.141 277.75 113.141 275.25V270.75C113.141 270.5 112.89 270.25 112.639 270.25H104.61C101.098 270.25 98.5887 271 96.5816 272.25C94.5744 273.5 93.5709 275.25 93.5709 277.75C93.5709 279.75 94.3236 281.5 95.8289 282.5C97.3343 283.5 99.3414 284 101.85 284ZM138.23 292C137.979 292 137.728 292 137.477 291.75C137.227 291.5 137.227 291.25 137.227 291V225.75C137.227 225.5 137.227 225.25 137.477 225C137.728 224.75 137.979 224.5 138.23 224.5H147.011C147.262 224.5 147.513 224.75 147.764 225C148.015 225.25 148.266 225.5 148.266 225.75V291C148.266 291.25 148.015 291.5 147.764 291.75C147.513 292 147.262 292 147.011 292H138.23ZM162.818 292C162.567 292 162.316 292 162.065 291.75C161.814 291.5 161.814 291.25 161.814 291V225.75C161.814 225.5 161.814 225.25 162.065 225C162.316 224.75 162.567 224.5 162.818 224.5H171.599C171.85 224.5 172.101 224.75 172.352 225C172.603 225.25 172.854 225.5 172.854 225.75V260.5C172.854 260.75 172.854 260.75 173.104 261C173.355 261 173.355 261 173.606 260.75L189.162 243.5C189.664 243 190.165 242.75 190.667 242.75H200.954C201.706 242.75 201.957 243 201.957 243.5C201.957 243.75 201.957 244 201.706 244.25L189.413 259C189.162 259.25 189.162 259.5 189.413 259.75L203.965 290.75C204.215 291 204.215 291.25 204.215 291.25C204.215 291.75 203.965 292 203.212 292H193.929C193.176 292 192.925 291.75 192.674 291.25L182.137 266.75C182.137 266.5 181.886 266.5 181.635 266.5C181.384 266.5 181.384 266.5 181.384 266.5L173.606 275.25C173.355 275.5 173.355 275.75 173.355 276V290.75C173.355 291 173.104 291.25 172.854 291.5C172.603 291.75 172.352 291.75 172.101 291.75H162.818V292ZM231.312 292.5C227.298 292.5 223.785 292 220.524 290.75C217.513 289.5 215.255 288 213.499 285.75C211.742 283.75 210.99 281.25 210.99 278.75V278C210.99 277.75 210.99 277.5 211.24 277.25C211.491 277 211.742 276.75 211.993 276.75H220.524C220.774 276.75 221.025 277 221.276 277.25C221.527 277.5 221.778 277.75 221.778 278V278.25C221.778 279.75 222.531 281.25 224.287 282.5C226.043 283.75 228.301 284.25 231.061 284.25C233.57 284.25 235.828 283.75 237.334 282.75C238.839 281.75 239.842 280.25 239.842 278.75C239.842 277.25 239.09 276.25 237.835 275.5C236.581 274.75 234.323 274 231.563 273L227.8 271.75C224.538 270.75 221.778 269.75 219.52 268.75C217.262 267.75 215.255 266.25 213.749 264.25C212.244 262.25 211.491 260 211.491 257C211.491 252.5 213.248 249 216.76 246.25C220.273 243.5 225.04 242.25 230.81 242.25C234.825 242.25 238.086 243 241.097 244.25C244.108 245.5 246.366 247.25 247.871 249.5C249.376 251.75 250.38 254.25 250.38 257C250.38 257.25 250.129 257.5 249.878 257.75C249.627 258 249.376 258 249.126 258H240.846C240.595 258 240.344 258 240.093 257.75C239.842 257.5 239.842 257.25 239.842 257C239.842 255.25 239.09 254 237.334 252.75C235.828 251.5 233.57 251 230.559 251C228.05 251 226.043 251.5 224.287 252.5C222.782 253.5 222.029 254.75 222.029 256.25C222.029 257.75 222.782 259 224.287 259.75C225.792 260.5 228.301 261.5 231.814 262.25L233.821 262.75C237.334 263.75 240.093 264.75 242.351 266C244.609 267 246.617 268.5 248.373 270.5C249.878 272.25 250.882 274.75 250.882 277.75C250.882 282.25 249.126 286 245.362 288.5C242.101 291.25 237.334 292.5 231.312 292.5ZM285.505 292.75C280.738 292.75 276.473 291.75 272.71 290C268.946 288 266.186 285.5 264.179 282C262.172 278.5 261.169 274.75 261.169 270.25V246.5C261.169 242 262.172 238 264.179 234.75C266.186 231.25 268.946 228.75 272.71 226.75C276.473 225 280.738 224 285.505 224C290.272 224 294.538 225 298.05 226.75C301.563 228.5 304.573 231 306.581 234.25C308.588 237.5 309.591 241.25 309.591 245.5C309.591 245.75 309.34 246 309.089 246.25C308.839 246.5 308.588 246.5 308.337 246.5L299.555 247C298.803 247 298.301 246.75 298.301 246C298.301 242.25 297.046 239.25 294.788 236.75C292.53 234.5 289.269 233.25 285.505 233.25C281.491 233.25 278.48 234.5 275.971 236.75C273.462 239 272.459 242 272.459 246V270.5C272.459 274.25 273.713 277.25 275.971 279.5C278.229 281.75 281.491 283 285.505 283C289.52 283 292.53 282 294.788 279.75C297.297 277.5 298.301 274.5 298.301 270.5C298.301 269.75 298.803 269.5 299.555 269.5L308.337 270C308.588 270 308.839 270 309.089 270.25C309.34 270.5 309.591 270.75 309.591 271C309.591 275.25 308.588 279.25 306.581 282.5C304.573 285.75 301.813 288.25 298.05 290C294.538 292 290.272 292.75 285.505 292.75ZM323.14 292C322.889 292 322.638 292 322.387 291.75C322.136 291.5 322.136 291.25 322.136 291V225.75C322.136 225.5 322.136 225.25 322.387 225C322.638 224.75 322.889 224.5 323.14 224.5H331.921C332.172 224.5 332.423 224.75 332.674 225C332.924 225.25 333.175 225.5 333.175 225.75V291C333.175 291.25 332.924 291.5 332.674 291.75C332.423 292 332.172 292 331.921 292H323.14ZM367.548 292.75C362.53 292.75 358.014 291.5 354.501 289C350.989 286.5 348.229 282.75 346.975 278.25C345.971 274.75 345.218 271 345.218 267.25C345.218 263.25 345.72 259.5 346.724 256.25C348.229 251.75 350.738 248.25 354.501 245.75C358.265 243.25 362.53 242 367.799 242C372.817 242 376.831 243.25 380.344 245.75C383.856 248.25 386.616 251.75 387.87 256.25C389.125 259.25 389.627 263 389.627 267.25C389.627 271.25 389.125 275 387.87 278.25C386.365 282.75 383.856 286.5 380.344 289C376.831 291.5 372.566 292.75 367.548 292.75ZM367.548 283.25C370.057 283.25 372.064 282.5 373.569 281.25C375.326 280 376.58 278 377.333 275.5C378.085 273.5 378.336 270.75 378.336 267.5C378.336 264 378.085 261.25 377.333 259.5C376.58 257 375.326 255.25 373.569 254C371.813 252.75 369.806 252 367.297 252C364.788 252 362.781 252.75 361.025 254C359.268 255.25 358.014 257.25 357.261 259.5C356.509 261.75 356.258 264.5 356.258 267.5C356.258 270.5 356.509 273.25 357.261 275.5C358.014 278 359.268 279.75 361.025 281.25C362.781 282.5 365.039 283.25 367.548 283.25ZM430.773 244C430.773 243.75 430.773 243.5 431.024 243.25C431.275 243 431.526 242.75 431.777 242.75H440.558C440.809 242.75 441.06 243 441.311 243.25C441.562 243.5 441.813 243.75 441.813 244V291C441.813 291.25 441.562 291.5 441.311 291.75C441.06 292 440.809 292 440.558 292H431.777C431.526 292 431.275 292 431.024 291.75C430.773 291.5 430.773 291.25 430.773 291V288C430.773 287.75 430.773 287.75 430.522 287.5C430.272 287.5 430.272 287.5 430.021 287.75C427.261 291.25 423.497 292.75 418.229 292.75C413.211 292.75 409.196 291.25 405.935 288.5C402.673 285.75 400.917 281.75 400.917 276.5V244C400.917 243.75 400.917 243.5 401.168 243.25C401.419 243 401.67 242.75 401.92 242.75H410.702C410.953 242.75 411.204 243 411.454 243.25C411.705 243.5 411.956 243.75 411.956 244V273.25C411.956 276.25 412.709 278.75 414.214 280.5C415.72 282.25 417.978 283.25 420.988 283.25C423.999 283.25 426.257 282.25 428.014 280.5C429.77 278.75 430.522 276.25 430.522 273.25V244H430.773ZM485.97 225.75C485.97 225.5 485.97 225.25 486.221 225C486.472 224.75 486.723 224.5 486.974 224.5H495.755C496.006 224.5 496.257 224.75 496.508 225C496.759 225.25 497.01 225.5 497.01 225.75V291C497.01 291.25 496.759 291.5 496.508 291.75C496.257 292 496.006 292 495.755 292H486.974C486.723 292 486.472 292 486.221 291.75C485.97 291.5 485.97 291.25 485.97 291V288C485.97 287.75 485.97 287.75 485.719 287.5C485.468 287.5 485.468 287.5 485.217 287.75C482.458 291 478.694 292.75 474.178 292.75C469.662 292.75 465.648 291.5 462.637 289.25C459.375 286.75 457.117 283.5 455.863 279.25C454.608 275.75 454.107 271.75 454.107 267.25C454.107 262.75 454.608 258.75 455.863 255.5C457.368 251.25 459.626 248 462.637 245.5C465.899 243 469.662 242 474.429 242C478.945 242 482.458 243.5 485.468 246.75C485.719 247 485.719 247 485.97 247C486.221 247 486.221 246.75 486.221 246.5V225.75H485.97ZM483.712 278.5C485.218 275.75 485.97 272.25 485.97 267.25C485.97 262.25 485.218 258.5 483.461 255.75C481.705 253 479.196 251.5 476.185 251.5C472.924 251.5 470.415 252.75 468.408 255.5C466.4 258.25 465.397 262.25 465.397 267.25C465.397 271.75 466.149 275.5 467.655 278.25C469.411 281.25 472.171 282.75 475.934 282.75C479.196 283.25 481.705 281.5 483.712 278.5Z" fill="#1E90FF"/>
<defs>
<linearGradient id="paint0_linear" x1="274.797" y1="27.1304" x2="190.3" y2="168.719" gradientUnits="userSpaceOnUse">
<stop stop-color="#0055D6"/>
<stop offset="1" stop-color="#62D0FF"/>
</linearGradient>
</defs>
</svg>
