<svg width="693" height="82" viewBox="0 0 693 82" fill="none" xmlns="http://www.w3.org/2000/svg">
<g clip-path="url(#clip0)">
<path d="M151.03 77.08C135.348 78.218 106.964 78.6196 95.9224 78.5527C95.3466 78.5527 94.8724 78.0841 94.8724 77.5151V72.4613C94.8724 71.8588 95.3466 71.3902 95.9563 71.4237C96.9047 71.4572 97.9886 71.4906 98.9708 71.4906C99.1741 71.4906 99.3773 71.4237 99.5128 71.3233C104.56 68.1102 109.403 64.3617 113.739 60.6131H91.8918C91.316 60.6131 90.8418 60.1445 90.8418 59.5755V54.7894C90.8418 54.2204 91.316 53.7519 91.8918 53.7519H161.226C161.801 53.7519 162.276 54.2204 162.276 54.7894V59.5755C162.276 60.1445 161.801 60.6131 161.226 60.6131H125.729C121.529 64.2278 116.211 68.2106 111.232 71.4906C121.055 71.3902 132.401 71.2229 142.224 70.8547C142.224 70.8547 138.871 68.5788 136.94 67.307C136.263 66.8384 136.127 65.8678 136.703 65.2653C137.651 64.2613 138.972 62.8221 139.819 61.9519C140.26 61.4833 140.971 61.3829 141.513 61.7176C146.593 64.7968 155.772 71.3902 161.26 75.5739C162.005 76.1429 162.072 77.2139 161.429 77.8833C160.514 78.8204 159.261 80.0588 158.414 80.929C157.872 81.498 156.992 81.5315 156.348 81.0629L151.03 77.08ZM130.403 10.7772V14.8604H151.674C157.297 14.8604 161.835 19.3788 161.835 24.9013V32.2645C161.835 32.8335 161.361 33.3021 160.785 33.3021H155.4C154.824 33.3021 154.35 32.8335 154.35 32.2645V25.1021C154.35 23.2278 152.826 21.7217 150.929 21.7217H130.403V39.0588C130.403 39.6278 129.929 40.0964 129.353 40.0964H123.764C123.189 40.0964 122.714 39.6278 122.714 39.0588V21.7551H102.29C100.393 21.7551 98.8692 23.2613 98.8692 25.1355V32.298C98.8692 32.867 98.395 33.3355 97.8192 33.3355H92.4337C91.8579 33.3355 91.3837 32.867 91.3837 32.298V24.9347C91.3837 19.3788 95.9224 14.8939 101.545 14.8939H122.714V10.7772H96.6337C96.0579 10.7772 95.5837 10.3086 95.5837 9.73963V4.95351C95.5837 4.38453 96.0579 3.91595 96.6337 3.91595H156.924C157.5 3.91595 157.974 4.38453 157.974 4.95351V9.73963C157.974 10.3086 157.5 10.7772 156.924 10.7772H130.403ZM97.2095 48.0621V43.276C97.2095 42.707 97.6837 42.2384 98.2595 42.2384H155.061C155.637 42.2384 156.111 42.707 156.111 43.276V48.0621C156.111 48.6311 155.637 49.0996 155.061 49.0996H98.2934C97.6837 49.0996 97.2095 48.6311 97.2095 48.0621ZM102.256 29.2857V25.4368C102.256 24.8678 102.73 24.3992 103.306 24.3992H118.311C118.887 24.3992 119.361 24.8678 119.361 25.4368V29.3192C119.361 29.8882 118.887 30.3568 118.311 30.3568H103.306C102.73 30.3568 102.256 29.8882 102.256 29.2857ZM102.256 37.9878V34.1053C102.256 33.5364 102.73 33.0678 103.306 33.0678H118.311C118.887 33.0678 119.361 33.5364 119.361 34.1053V37.9878C119.361 38.5568 118.887 39.0253 118.311 39.0253H103.306C102.73 39.0588 102.256 38.5902 102.256 37.9878ZM133.621 29.2857V25.4368C133.621 24.8678 134.095 24.3992 134.671 24.3992H149.879C150.455 24.3992 150.929 24.8678 150.929 25.4368V29.3192C150.929 29.8882 150.455 30.3568 149.879 30.3568H134.671C134.095 30.3568 133.621 29.8882 133.621 29.2857ZM133.621 37.9878V34.1053C133.621 33.5364 134.095 33.0678 134.671 33.0678H149.879C150.455 33.0678 150.929 33.5364 150.929 34.1053V37.9878C150.929 38.5568 150.455 39.0253 149.879 39.0253H134.671C134.095 39.0588 133.621 38.5902 133.621 37.9878Z" fill="#222831"/>
<path d="M343.519 75.7077C336.745 67.2065 334.679 56.262 334.679 44.6481V19.0775C334.679 11.5134 328.446 5.35507 320.792 5.35507H300.266C299.724 5.35507 299.317 5.79017 299.317 6.29221V11.7143C299.317 12.2498 299.758 12.6514 300.266 12.6514H308.09V36.2808H298.877C298.335 36.2808 297.929 36.7159 297.929 37.2179V42.8408C297.929 43.3763 298.369 43.7779 298.877 43.7779H308.09V79.9583C308.09 80.4938 308.53 80.8955 309.038 80.8955H314.661C315.203 80.8955 315.609 80.4604 315.609 79.9583V43.8449L326.99 43.6441C327.024 58.8726 328.48 68.6122 337.185 80.7616C337.524 81.2302 338.167 81.2971 338.574 80.9624L343.384 77.0465C343.79 76.7118 343.824 76.1094 343.519 75.7077ZM315.609 12.6849H319.301C323.535 12.6849 326.956 16.0653 326.956 20.249V36.1469L315.576 36.3477V12.6849H315.609Z" fill="#222831"/>
<path d="M292.171 49.9028H273.779C272.018 49.9028 270.629 51.3085 270.629 53.0154V73.7664C270.629 75.5069 272.051 76.8791 273.779 76.8791H292.103C293.898 76.8791 295.355 75.4399 295.355 73.666V53.0489C295.355 51.342 293.932 49.9028 292.171 49.9028ZM287.835 69.8505H278.114V56.9983H287.835V69.8505Z" fill="#222831"/>
<path d="M296.676 11.0783H287.09V1.40568C287.09 0.870169 286.65 0.468536 286.142 0.468536H280.553C280.011 0.468536 279.605 0.903638 279.605 1.40568V11.0449H269.748C269.206 11.0449 268.8 11.48 268.8 11.982V17.3371C268.8 17.8726 269.24 18.2742 269.748 18.2742H296.676C297.218 18.2742 297.624 17.8391 297.624 17.3371V11.982C297.658 11.48 297.218 11.0783 296.676 11.0783Z" fill="#222831"/>
<path d="M294.576 23.9975H271.747C271.205 23.9975 270.798 24.4326 270.798 24.9346V30.2897C270.798 30.8252 271.239 31.2269 271.747 31.2269H294.576C295.118 31.2269 295.524 30.7918 295.524 30.2897V24.9346C295.524 24.4326 295.118 23.9975 294.576 23.9975Z" fill="#222831"/>
<path d="M294.576 36.9502H271.747C271.205 36.9502 270.798 37.3853 270.798 37.8873V43.2424C270.798 43.7779 271.239 44.1795 271.747 44.1795H294.576C295.118 44.1795 295.524 43.7444 295.524 43.2424V37.8873C295.524 37.3853 295.118 36.9502 294.576 36.9502Z" fill="#222831"/>
<path d="M391.684 9.97382H429.484C429.992 9.97382 430.432 10.3755 430.432 10.911V16.6342C430.432 17.1363 430.026 17.5714 429.484 17.5714H388.263C386.705 20.8179 384.977 23.9975 383.047 26.9763H408.247C415.732 26.9763 421.829 32.9673 421.829 40.3975V65.7003C421.829 73.5657 415.834 80.3265 406.045 80.5942H400.863C400.355 80.5942 399.914 80.1926 399.914 79.6571V74.1012C399.914 73.5991 400.321 73.164 400.863 73.164H404.487C411.126 72.7624 413.768 70.6538 413.768 66.604V63.7591H380.032V80.3934C380.032 80.8955 379.626 81.3306 379.084 81.3306H372.919C372.411 81.3306 371.971 80.9289 371.971 80.3934V41.7697C368.347 45.7191 364.452 49.3338 360.252 52.6138C359.845 52.915 359.269 52.8481 358.931 52.4799L354.629 47.2922C354.29 46.8906 354.358 46.2881 354.764 45.9869C364.113 38.5567 372.682 28.8171 378.948 17.6048H358.253C357.745 17.6048 357.305 17.2032 357.305 16.6677V10.911C357.305 10.4089 357.711 9.97382 358.253 9.97382H382.708C384.063 7.06198 385.147 4.11668 386.095 1.03749C386.231 0.568922 386.739 0.267698 387.247 0.401575L393.547 2.00811C394.089 2.14198 394.393 2.71096 394.19 3.213C393.377 5.55586 392.564 7.83178 391.684 9.97382ZM380.032 42.0375H413.768V39.9289C413.768 36.8832 411.261 34.4399 408.213 34.4399H380.032V42.0375ZM380.032 56.6971H413.768V49.0995H380.032V56.6971Z" fill="#222831"/>
<path d="M520.123 73.9339C514.263 70.6204 509.453 66.7714 505.558 62.5877C505.524 62.5543 505.524 62.4873 505.558 62.4539C509.69 59.609 514.432 55.6931 517.65 52.6473C518.056 52.2457 518.09 51.6098 517.684 51.2082L514.127 47.4931C513.721 47.058 513.01 47.058 512.603 47.4931C509.182 51.1412 505.66 54.0196 501.155 56.8645C501.121 56.898 501.053 56.8645 501.019 56.831C498.14 52.6473 495.973 48.1624 494.618 43.6441C494.584 43.5771 494.652 43.5102 494.719 43.5102H510.91C512.739 43.5102 514.195 42.071 514.195 40.2637V12.8188C514.195 8.23347 510.435 4.51837 505.795 4.51837H477.377C476.802 4.51837 476.327 4.98694 476.327 5.55592V73.6326C476.327 73.6661 476.294 73.6996 476.26 73.7331L473.821 74.4694C473.245 74.6367 472.94 75.2726 473.144 75.8416L475.21 81.0628C475.413 81.5649 475.955 81.8326 476.497 81.6653C482.966 79.7575 492.89 75.9086 498.377 73.231C498.885 72.9967 499.123 72.3608 498.852 71.8588L496.515 66.9388C496.277 66.4033 495.634 66.2024 495.126 66.4367C492.01 67.9094 488.216 69.449 484.287 70.9216C484.219 70.9551 484.152 70.8882 484.152 70.8212V43.5102C484.152 43.4433 484.185 43.4098 484.253 43.4098H486.556C486.59 43.4098 486.624 43.4433 486.658 43.4767C492.145 59.04 498.174 69.6163 515.889 80.6277C516.397 80.929 517.04 80.7951 517.345 80.2931L520.427 75.3061C520.834 74.871 520.631 74.2016 520.123 73.9339ZM484.219 12.049C484.219 11.982 484.253 11.9486 484.321 11.9486H503.763C505.287 11.9486 506.506 13.1535 506.506 14.6596V20.0147C506.506 20.0816 506.473 20.1151 506.405 20.1151H484.321C484.253 20.1151 484.219 20.0816 484.219 20.0147V12.049ZM484.321 36.0465C484.253 36.0465 484.219 36.0131 484.219 35.9461V27.4449C484.219 27.378 484.253 27.3445 484.321 27.3445H506.405C506.473 27.3445 506.506 27.378 506.506 27.4449V35.9461C506.506 36.0131 506.473 36.0465 506.405 36.0465H484.321Z" fill="#222831"/>
<path d="M464.981 31.6955C464.981 31.662 468.503 21.7886 471.314 13.8228C473.008 9.00326 469.418 3.98285 464.235 3.98285H448.519C447.943 3.98285 447.469 4.45142 447.469 5.0204V80.5608C447.469 81.1298 447.943 81.5984 448.519 81.5984H454.311C454.887 81.5984 455.361 81.1298 455.361 80.5608V64.3951H455.395H462.339C470.874 64.3951 473.143 57.7682 473.143 50.6392C473.143 44.0122 469.926 38.6906 464.981 31.6955ZM455.7 56.898H455.395H455.361V11.7143C455.361 11.6473 455.395 11.6139 455.463 11.6139H462.847C463.49 11.6139 463.964 12.2498 463.761 12.8522L456.885 32.6996C456.784 33.0343 456.851 33.4024 457.055 33.7037C462.305 40.0628 465.116 46.2882 465.116 50.0033C465.082 55.2579 464.439 56.6971 455.7 56.898Z" fill="#222831"/>
<path d="M538.548 42.5396L534.585 37.4188C534.281 37.0172 534.348 36.4147 534.755 36.1135C547.05 26.4408 553.485 16.9355 558.803 2.07512C558.973 1.57308 559.514 1.33879 560.023 1.50614L565.781 3.44736C566.255 3.61471 566.526 4.11675 566.39 4.61879C561.411 20.3829 553.248 32.3649 539.937 42.7404C539.463 43.0416 538.853 42.9747 538.548 42.5396ZM554.806 70.018C566.085 69.7502 577.703 69.0139 587.153 68.311C583.529 63.2572 579.702 58.1363 576.213 53.6849C575.874 53.2833 575.976 52.6808 576.382 52.3461L581.26 48.7649C581.666 48.4637 582.276 48.5306 582.581 48.9323C589.626 57.969 597.077 68.0767 602.564 76.3102C602.835 76.7453 602.734 77.3143 602.293 77.6155L596.908 81.1633C596.468 81.4645 595.858 81.3306 595.587 80.8955L591.997 75.3731C577.06 76.7118 556.331 77.7829 540.581 77.9837C540.073 77.9837 539.666 77.6155 539.632 77.1135L539.226 71.2229C539.192 70.6874 539.632 70.2188 540.174 70.2188H544.645C553.452 58.7723 559.955 47.3257 565.882 33.6033C566.085 33.1347 566.661 32.9004 567.135 33.1012L573.164 35.7118C573.639 35.9127 573.876 36.4816 573.673 36.9502C568.185 49.6351 562.224 59.9102 554.806 70.018ZM606.934 38.4898L602.7 43.711C602.361 44.1127 601.752 44.1796 601.345 43.8449C588.677 33.369 579.939 20.4163 575.027 3.91593C574.892 3.44736 575.163 2.94532 575.637 2.77797L581.361 0.769811C581.869 0.602464 582.445 0.870219 582.581 1.40573C587.255 16.9355 593.961 26.4074 606.798 37.1845C607.171 37.5192 607.239 38.0882 606.934 38.4898Z" fill="#222831"/>
<path d="M626.003 26.1396V20.7844C626.003 20.2489 626.443 19.8473 626.951 19.8473H677.927C678.469 19.8473 678.876 20.2824 678.876 20.7844V26.1396C678.876 26.6751 678.435 27.0767 677.927 27.0767H626.951C626.443 27.0767 626.003 26.6751 626.003 26.1396ZM677.182 72.9297C682.94 72.9297 684.329 68.3444 684.532 65.6334C685.108 49.0661 685.108 34.2726 685.04 17.2032C685.04 14.4253 682.737 12.1828 679.926 12.1828H630.169C629.627 12.1828 629.221 11.7477 629.221 11.2457V5.89057C629.221 5.35506 629.661 4.95343 630.169 4.95343H680.535C687.411 4.95343 693 10.4759 692.966 17.2702C692.966 37.2514 692.966 51.5093 692.526 64.8636C692.153 74.3689 687.377 80.3934 676.945 80.3934H667.529C666.987 80.3934 666.58 79.9583 666.58 79.4563V73.9338C666.58 73.3983 667.021 72.9967 667.529 72.9967H677.182V72.9297ZM672.643 37.9542V62.1191C672.643 64.3951 670.78 66.2024 668.511 66.2024H636.367C634.098 66.2024 632.235 64.3616 632.235 62.1191V38.8579C632.235 36.6155 634.098 34.7747 636.367 34.7747H669.459C671.221 34.7747 672.643 36.2138 672.643 37.9542ZM640.127 58.7722H664.785V42.2049H640.127V58.7722Z" fill="#222831"/>
<path d="M33.8371 13.7894H69.9774C70.4855 13.7894 70.9258 13.3543 70.9258 12.8522V7.0955C70.9258 6.59346 70.4855 6.15836 69.9774 6.15836H33.8371C33.329 6.15836 32.8887 6.59346 32.8887 7.0955V12.8188C32.8887 13.3543 33.329 13.7894 33.8371 13.7894Z" fill="#222831"/>
<path d="M5.31779 27.9134C5.6565 28.3151 6.30004 28.3485 6.67263 27.9804C14.4291 20.8514 20.8646 12.9861 25.5726 4.81956C25.8436 4.38446 25.6742 3.81548 25.2 3.54772L19.9839 0.568948C19.5097 0.301193 18.9339 0.46854 18.6968 0.937111C14.5307 8.23344 8.53553 15.7641 1.28714 21.8555C0.88069 22.1902 0.846819 22.7926 1.18553 23.1943L5.31779 27.9134Z" fill="#222831"/>
<path d="M27.3676 23.0603L22.1854 20.4497C21.7112 20.2154 21.1354 20.4163 20.8983 20.8514C15.3434 31.4612 8.39988 39.9958 0.304719 46.9575C-0.101732 47.2922 -0.135603 47.8612 0.203106 48.2628L4.19988 52.982C4.53859 53.3836 5.14827 53.4505 5.55472 53.0824C7.68859 51.2416 9.75472 49.1999 11.8886 46.924V80.862C11.8886 81.364 12.3289 81.7991 12.837 81.7991H18.8321C19.3402 81.7991 19.7805 81.364 19.7805 80.862V37.3518C22.7273 33.302 25.4031 28.884 27.7741 24.2987C28.0112 23.8301 27.8418 23.2946 27.3676 23.0603Z" fill="#222831"/>
<path d="M74.1772 30.6245H29.6369C29.1288 30.6245 28.6885 31.0596 28.6885 31.5616V37.2849C28.6885 37.7869 29.1288 38.222 29.6369 38.222H36.5465H53.8885H56.4627V52.6808V64.6294V66.9388C56.124 68.9469 54.9385 70.6873 53.2788 71.7584C52.1272 72.5616 50.7046 72.9967 49.2143 72.9967H43.0498C42.5417 72.9967 42.1014 73.4318 42.1014 73.9339V79.6571C42.1014 80.1926 42.5417 80.5943 43.0498 80.5943H49.2143C49.2482 80.5943 49.282 80.5943 49.3498 80.5943C57.6482 80.5943 64.3885 73.9339 64.3885 65.7339C64.3885 65.6669 64.3885 65.5665 64.3885 65.4996V38.222H70.1127H74.1772C74.6852 38.222 75.1256 37.7869 75.1256 37.2849V31.5616C75.1256 31.0596 74.7191 30.6245 74.1772 30.6245Z" fill="#222831"/>
<path d="M251.356 75.4065C243.397 72.8963 234.861 70.6204 225.919 68.6792C225.411 68.5787 224.903 68.8465 224.734 69.3151C224.293 70.4196 223.548 72.3943 223.074 73.5992C222.871 74.1681 223.176 74.8041 223.785 74.9379C231.542 76.9126 240.856 79.5567 249.053 82C249.561 82.1673 250.137 81.8661 250.306 81.3641L252 76.7453C252.203 76.1763 251.898 75.5739 251.356 75.4065Z" fill="#222831"/>
<path d="M247.563 35.444L249.392 30.524C249.629 29.9216 249.223 29.2522 248.579 29.1518C238.621 27.7126 231.576 24.0979 227.206 19.613C227.748 18.5755 228.155 17.8057 228.561 16.5673C228.765 15.9983 228.426 15.3959 227.85 15.262L222.668 13.8563C222.16 13.7224 221.618 13.9902 221.415 14.4922C218.197 23.7632 211.321 26.4073 198.145 28.1812C197.535 28.2481 197.129 28.884 197.298 29.4865L198.619 33.9714C198.755 34.4734 199.263 34.7746 199.771 34.7077C211.253 33.0008 218.502 29.9216 223.481 24.8342C228.527 30.022 235.471 33.9379 246.411 36.0465C246.919 36.1804 247.394 35.9126 247.563 35.444Z" fill="#222831"/>
<path d="M205.935 69.449C205.732 68.947 205.156 68.7127 204.648 68.8801C196.689 71.7249 187.814 73.6662 179.55 75.0719C178.974 75.1723 178.568 75.7413 178.737 76.3102L179.889 81.0629C180.024 81.5649 180.498 81.8996 181.04 81.8327C189.677 80.6278 199.195 78.0172 207.29 75.3396C207.866 75.1388 208.137 74.5364 207.9 73.9674L205.935 69.449Z" fill="#222831"/>
<path d="M181.548 34.0049C181.785 34.507 182.395 34.7078 182.903 34.4735C188.39 31.9298 196.045 27.6123 200.55 24.4661C201.024 24.1314 201.126 23.4621 200.753 22.9935L197.468 18.8433C197.129 18.4082 196.485 18.3078 196.045 18.6425C191.574 22.0229 185.511 25.1021 179.55 27.9135C179.042 28.1478 178.805 28.7837 179.076 29.2857C179.753 30.5576 180.905 32.8 181.548 34.0049Z" fill="#222831"/>
<path d="M182.632 8.96978C186.968 10.911 190.727 12.7184 195.165 15.0947C195.639 15.3624 196.248 15.1951 196.553 14.7265L199.432 9.97386C199.737 9.47182 199.568 8.83591 199.026 8.56815C194.487 6.15835 190.355 4.21713 185.952 2.57713C185.477 2.40978 184.935 2.6106 184.698 3.0457C184.055 4.18366 182.869 6.3257 182.158 7.59754C181.887 8.09958 182.09 8.7355 182.632 8.96978Z" fill="#222831"/>
<path d="M196.147 35.6114C191.676 35.6114 188.018 39.1926 188.018 43.6441V65.031C188.018 66.738 189.406 68.1102 191.134 68.1102H239.739C241.5 68.1102 242.889 66.7045 242.889 64.9975V43.6441C242.889 39.1926 239.23 35.6114 234.759 35.6114H196.147ZM235.064 61.7845H195.91V59.1739H235.064V61.7845ZM235.064 53.1828H195.977C195.943 53.1828 195.943 53.1494 195.943 53.1494V50.6057C195.943 50.5722 195.977 50.5722 195.977 50.5722H235.03C235.064 50.5722 235.064 50.6057 235.064 50.6057V53.1828ZM235.064 44.5143C235.064 44.5477 235.03 44.5477 235.03 44.5477H195.977C195.943 44.5477 195.943 44.5143 195.943 44.5143C195.943 43.0751 197.129 41.9371 198.551 41.9371H232.456C233.879 41.9371 235.064 43.1086 235.064 44.5143Z" fill="#222831"/>
<path d="M242.076 5.82366H218.603C218.535 5.82366 218.502 5.75672 218.535 5.68978C218.976 4.81958 219.314 3.91591 219.653 3.07917C219.856 2.54366 219.585 1.94121 219.043 1.77386L214.234 0.100395C213.726 -0.0669515 213.184 0.167334 212.947 0.635906C210.406 6.22529 206.41 12.5175 201.295 17.6384C200.855 18.0735 200.922 18.7763 201.397 19.1445L205.529 22.391C205.935 22.7257 206.545 22.6922 206.918 22.3241C209.864 19.3118 212.54 15.9649 214.674 12.5845C214.674 12.551 214.708 12.551 214.742 12.551H233.71H240.687C241.466 12.551 242.347 13.0196 241.568 15.1616L239.163 20.8849C238.993 21.2865 239.298 21.7216 239.739 21.7216L244.989 23.3951C245.192 23.3951 245.361 23.2612 245.429 23.0939C245.903 21.8555 248.037 15.831 248.816 12.551C249.798 8.70203 247.19 5.75672 242.076 5.82366Z" fill="#222831"/>
</g>
<defs>
<clipPath id="clip0">
<rect width="693" height="82" fill="white"/>
</clipPath>
</defs>
</svg>
