<svg width="191" height="191" viewBox="0 0 191 191" fill="none" xmlns="http://www.w3.org/2000/svg">
<path fill-rule="evenodd" clip-rule="evenodd" d="M136.832 91.5164C142.989 91.2883 148.69 93.7969 152.339 98.586C153.251 99.9543 153.023 101.779 151.883 102.691C150.287 104.059 140.48 111.585 140.48 111.585C139.568 112.269 137.744 112.269 136.832 111.585C136.832 111.585 132.955 108.62 129.306 108.848C122.92 109.304 118.131 114.55 118.587 120.935C118.815 123.216 119.728 124.812 119.728 124.812C120.412 125.952 119.956 127.549 119.043 128.233L111.062 134.39C110.149 135.074 108.325 135.302 107.185 134.618C107.185 134.618 104.22 133.022 101.255 133.25C94.8699 133.706 90.0808 138.951 90.5369 145.337V146.477C90.993 147.617 90.3088 149.214 89.1686 149.67C89.1686 149.67 89.1686 149.67 88.2564 150.126C83.6953 152.406 76.3976 154.459 76.3976 154.459C75.2574 154.687 73.661 154.231 72.7488 153.319C72.7488 153.319 67.9597 146.705 62.4864 146.933C57.2412 147.161 53.1363 154.003 53.1363 154.003C52.4521 155.143 50.8557 155.827 49.7155 155.599C49.7155 155.599 44.2422 154.459 40.3653 153.091C37.6287 152.178 34.2079 150.582 34.2079 150.582C33.0676 150.126 32.6115 148.758 33.0676 147.617C33.0676 147.617 34.2079 145.109 34.2079 142.6C33.7518 136.215 28.5066 131.426 22.1211 131.882C18.9284 132.11 16.1917 134.162 16.1917 134.162C15.2795 134.846 13.6832 134.618 12.999 133.706C12.999 133.706 8.2099 127.321 5.92937 122.76L5.70132 122.075C5.47326 121.391 5.92937 120.023 6.84158 119.339C6.84158 119.339 12.0868 114.55 11.8587 109.761C11.4026 103.603 2.05247 99.7263 2.05247 99.7263C0.912211 99.0421 0 97.6738 0 96.3055L1.14026 83.0784C1.36832 81.9382 2.28053 81.026 3.42079 81.026H4.56105C10.9465 80.5699 15.7356 75.3247 15.2795 68.9392C15.0515 65.5184 12.3148 62.0976 12.3148 62.0976C11.4026 61.4134 11.4026 59.8171 12.0868 58.6768C12.0868 58.6768 13.6832 56.3963 15.2795 54.5719C16.8759 52.7474 18.9284 50.695 18.9284 50.695C19.8406 49.7828 21.4369 49.7828 22.3492 50.695C22.3492 50.695 26.4541 54.3438 30.7871 54.1158C37.1726 53.6597 41.9617 48.4144 41.5056 42.029C41.5056 40.4326 41.0495 39.7484 41.0495 39.7484C40.5934 38.6082 41.2775 37.2399 42.4178 37.0118L55.1887 34.7313C56.329 34.5032 57.9254 35.4154 58.6095 36.5557C58.6095 36.5557 63.3986 45.6778 69.5561 45.2217C75.0293 44.9937 79.1343 37.696 79.1343 37.696C79.8184 36.5557 81.1867 35.8715 82.5551 35.8715L93.2735 37.0118C94.4138 37.2399 96.2382 37.4679 97.1504 37.696L97.6065 38.3801C98.0626 39.0643 98.2907 39.7484 98.2907 40.6607C97.8346 44.9937 96.0102 49.0986 92.8174 52.2913C89.6247 55.256 85.5197 57.0804 81.1867 57.3085H80.2745C79.3623 57.3085 77.5379 57.0804 76.1696 57.0804L65.4511 56.1682C64.3108 56.1682 62.2584 55.9402 60.8901 55.9402C60.8901 55.9402 60.4339 55.9402 59.0656 55.9402C48.5752 56.6243 38.7689 61.1854 31.6993 68.9392C24.6297 76.693 20.9808 86.7273 21.4369 97.2177C21.8931 107.936 26.4541 117.742 34.436 125.04C42.4178 132.338 52.6802 135.987 63.3986 135.302C63.6267 135.302 64.767 135.074 65.9072 134.846L81.8709 129.373C83.0112 128.689 84.8356 127.777 85.7478 126.865L124.973 96.5336C125.885 95.8494 127.709 94.7091 128.85 94.025C128.622 94.253 132.955 91.7444 136.832 91.5164ZM189.284 98.1299C189.284 98.1299 180.618 102.919 180.846 109.076C181.074 112.497 183.582 115.462 183.81 115.918C184.723 116.83 184.723 118.427 184.038 119.567C184.038 119.567 181.302 123.9 178.793 126.636C176.741 128.917 174.232 130.97 174.232 130.97C173.32 131.654 171.496 131.882 170.355 131.426C170.355 131.426 167.391 129.829 164.426 130.057C158.04 130.513 153.251 135.759 153.707 142.144C153.707 143.512 153.936 143.969 153.936 143.969C154.392 145.109 153.936 146.705 152.795 147.617L144.585 154.003C144.129 154.459 143.445 154.687 142.989 155.143C142.533 155.599 142.077 155.827 141.849 156.055C141.393 156.511 140.708 156.283 140.252 155.827C139.796 155.371 139.112 154.003 138.656 152.863C138.656 152.863 135.235 145.793 135.919 140.776C136.604 135.759 139.112 131.198 143.217 128.233C152.795 120.935 159.181 115.918 161.233 114.322C165.794 110.673 170.127 101.779 169.671 93.1128C168.759 78.0613 155.988 66.6587 140.937 67.3428C136.147 67.5709 131.814 68.9392 129.078 70.7636C127.481 71.9039 111.746 83.9907 85.2917 104.515C82.327 106.796 78.6782 108.164 74.8013 108.392C68.4158 108.848 60.4339 102.463 60.4339 102.463C59.5217 101.779 58.6095 100.867 58.3815 100.867C58.3815 100.638 58.1534 100.41 58.1534 100.182C58.1534 99.9543 58.3815 98.358 58.6095 98.1299C58.8376 97.9019 59.7498 97.2177 60.662 96.5336C60.8901 96.5336 60.8901 96.3055 61.1181 96.3055L70.0122 89.4639C70.9244 88.7798 72.7488 88.7798 73.661 89.4639C73.661 89.4639 77.5379 92.4286 81.1867 92.2006C87.5722 91.7444 92.3613 86.4992 91.9052 80.1138C91.6772 77.8332 90.993 76.2369 90.993 76.2369C90.3088 75.0966 90.765 73.5002 91.6772 72.8161L101.94 64.8342C102.852 64.1501 104.676 64.1501 105.588 64.8342C105.588 64.8342 109.465 67.5709 113.114 67.5709C119.5 67.1148 124.289 61.8695 123.833 55.4841C123.833 53.6597 123.376 52.5194 123.376 52.5194C122.92 51.3791 123.376 50.0108 124.517 49.5547C124.517 49.5547 132.955 46.59 139.568 46.1339C141.393 46.1339 142.533 46.1339 142.533 46.1339C143.901 46.1339 145.27 47.0461 145.954 48.1864C145.954 48.1864 150.743 56.8524 156.9 56.6243C160.549 56.3963 163.742 53.4316 163.742 53.4316C164.654 52.5194 166.25 52.5194 167.391 53.2035C167.391 53.2035 171.952 55.9402 174.688 58.4488C176.057 59.589 176.969 60.5012 176.969 60.5012C177.881 61.4134 177.881 63.0098 177.197 63.922C177.197 63.922 174.688 67.5709 174.916 70.9917C175.372 77.3771 180.618 82.1662 187.003 81.7101H187.687C188.371 81.4821 189.284 82.3943 189.74 83.5345C189.74 83.5345 190.652 88.0956 190.88 91.5164C190.88 93.3408 190.88 94.7091 190.88 94.7091C191.336 96.0774 190.424 97.6738 189.284 98.1299Z" fill="url(#paint0_linear)"/>
<defs>
<linearGradient id="paint0_linear" x1="121.888" y1="27.1304" x2="38.3119" y2="170.387" gradientUnits="userSpaceOnUse">
<stop stop-color="#0055D6"/>
<stop offset="1" stop-color="#62D0FF"/>
</linearGradient>
</defs>
</svg>
