<svg width="465" height="65" viewBox="0 0 465 65" fill="none" xmlns="http://www.w3.org/2000/svg">
<path d="M18.0538 63.9166C17.3488 63.9166 16.8788 63.6816 16.8788 62.9767L0.429688 1.64491V1.17494C0.429688 0.704963 0.664661 0.469977 1.36962 0.469977H10.2992C11.0041 0.469977 11.4741 0.704963 11.4741 1.40993L21.8136 42.7677C21.8136 43.0027 22.0485 43.0027 22.0485 43.0027C22.2835 43.0027 22.2835 43.0027 22.2835 42.7677L32.153 1.40993C32.388 0.704963 32.623 0.469977 33.3279 0.469977H42.0225C42.7274 0.469977 43.1974 0.704963 43.1974 1.40993L53.7719 42.7677C53.7719 43.0027 54.0068 43.0027 54.0068 43.0027C54.2418 43.0027 54.2418 43.0027 54.2418 42.7677L64.3463 1.40993C64.5813 0.704963 65.0513 0.469977 65.5212 0.469977H73.9808C74.9207 0.469977 75.1557 0.939952 74.9207 1.64491L59.1766 62.9767C58.9416 63.6816 58.4716 63.9166 58.0016 63.9166H49.5421C48.8371 63.9166 48.3671 63.6816 48.3671 62.9767L37.7927 19.739C37.7927 19.504 37.5577 19.504 37.5577 19.504C37.3227 19.504 37.3227 19.504 37.3227 19.739L27.2183 62.9767C26.9833 63.6816 26.7483 63.9166 26.0433 63.9166H18.0538ZM97.0095 16.9191C100.769 16.9191 104.059 17.6241 107.114 18.799C109.934 20.2089 112.284 21.8538 113.929 24.4387C115.574 26.7886 116.279 29.3734 116.279 32.4283V62.9767C116.279 63.2116 116.044 63.4466 115.809 63.6816C115.574 63.9166 115.339 63.9166 115.104 63.9166H106.644C106.409 63.9166 106.174 63.9166 105.939 63.6816C105.704 63.4466 105.704 63.2116 105.704 62.9767V60.1568C105.704 59.9218 105.704 59.9218 105.469 59.9218C105.234 59.9218 105.234 59.9218 104.999 59.9218C101.944 63.2116 97.7145 64.8566 92.0748 64.8566C87.6101 64.8566 83.8503 63.6816 80.7954 61.3317C77.9756 58.9819 76.5656 55.692 76.5656 50.9923C76.5656 46.2925 78.2106 42.5327 81.5004 39.9479C84.7902 37.363 89.49 35.9531 95.3646 35.9531H104.999C105.234 35.9531 105.469 35.7181 105.469 35.4831V33.3682C105.469 31.0184 104.764 29.1385 103.354 27.9635C101.944 26.5536 99.8294 26.0836 97.0095 26.0836C94.6597 26.0836 92.7798 26.5536 91.3699 27.2586C89.9599 27.9635 89.02 29.1385 88.785 30.5484C88.55 31.2533 88.08 31.4883 87.61 31.4883L78.9155 30.3134C78.6805 30.3134 78.4455 30.0784 78.2105 30.0784C77.9756 29.8434 77.9756 29.6084 77.9756 29.3734C78.4455 25.6136 80.3255 22.5588 83.8503 20.2089C87.3751 18.094 91.8398 16.9191 97.0095 16.9191ZM94.8947 56.397C97.9495 56.397 100.299 55.692 102.414 54.0471C104.529 52.4022 105.469 50.5223 105.469 48.1724V43.9427C105.469 43.7077 105.234 43.4727 104.999 43.4727H97.4796C94.1897 43.4727 91.8398 44.1777 89.9599 45.3526C88.08 46.5275 87.1401 48.1724 87.1401 50.5223C87.1401 52.4022 87.8451 54.0471 89.255 54.9871C90.6649 55.927 92.5448 56.397 94.8947 56.397ZM128.968 63.9166C128.733 63.9166 128.498 63.9166 128.263 63.6816C128.028 63.4466 128.028 63.2116 128.028 62.9767V1.64491C128.028 1.40993 128.028 1.17494 128.263 0.939951C128.498 0.704964 128.733 0.469977 128.968 0.469977H137.192C137.427 0.469977 137.662 0.704964 137.897 0.939951C138.132 1.17494 138.367 1.40993 138.367 1.64491V62.9767C138.367 63.2116 138.132 63.4466 137.897 63.6816C137.662 63.9166 137.427 63.9166 137.192 63.9166H128.968ZM151.997 63.9166C151.762 63.9166 151.527 63.9166 151.292 63.6816C151.057 63.4466 151.057 63.2116 151.057 62.9767V1.64491C151.057 1.40993 151.057 1.17494 151.292 0.939951C151.527 0.704964 151.762 0.469977 151.997 0.469977H160.221C160.456 0.469977 160.691 0.704964 160.926 0.939951C161.161 1.17494 161.396 1.40993 161.396 1.64491V34.3082C161.396 34.5432 161.396 34.5432 161.631 34.7782C161.866 34.7782 161.866 34.7782 162.101 34.5432L176.67 18.329C177.14 17.8591 177.61 17.6241 178.08 17.6241H187.715C188.42 17.6241 188.655 17.8591 188.655 18.329C188.655 18.564 188.655 18.799 188.42 19.034L176.905 32.8983C176.67 33.1332 176.67 33.3682 176.905 33.6032L190.535 62.7417C190.77 62.9767 190.77 63.2116 190.77 63.2116C190.77 63.6816 190.535 63.9166 189.83 63.9166H181.135C180.43 63.9166 180.195 63.6816 179.96 63.2116L170.091 40.1829C170.091 39.9479 169.856 39.9479 169.621 39.9479C169.386 39.9479 169.386 39.9479 169.386 39.9479L162.101 48.1724C161.866 48.4074 161.866 48.6424 161.866 48.8774V62.7417C161.866 62.9767 161.631 63.2116 161.396 63.4466C161.161 63.6816 160.926 63.6816 160.691 63.6816H151.997V63.9166ZM216.148 64.3866C212.388 64.3866 209.099 63.9166 206.044 62.7417C203.224 61.5667 201.109 60.1568 199.464 58.0419C197.819 56.162 197.114 53.8121 197.114 51.4623V50.7573C197.114 50.5223 197.114 50.2873 197.349 50.0523C197.584 49.8174 197.819 49.5824 198.054 49.5824H206.044C206.279 49.5824 206.514 49.8174 206.749 50.0523C206.984 50.2873 207.219 50.5223 207.219 50.7573V50.9923C207.219 52.4022 207.924 53.8121 209.569 54.9871C211.214 56.162 213.328 56.632 215.913 56.632C218.263 56.632 220.378 56.162 221.788 55.2221C223.198 54.2821 224.138 52.8722 224.138 51.4623C224.138 50.0523 223.433 49.1124 222.258 48.4074C221.083 47.7025 218.968 46.9975 216.383 46.0576L212.858 44.8826C209.804 43.9427 207.219 43.0027 205.104 42.0628C202.989 41.1228 201.109 39.7129 199.699 37.833C198.289 35.9531 197.584 33.8382 197.584 31.0184C197.584 26.7886 199.229 23.4988 202.519 20.9139C205.809 18.329 210.274 17.1541 215.678 17.1541C219.438 17.1541 222.493 17.8591 225.313 19.034C228.133 20.2089 230.247 21.8538 231.657 23.9687C233.067 26.0836 234.007 28.4335 234.007 31.0184C234.007 31.2533 233.772 31.4883 233.537 31.7233C233.302 31.9583 233.067 31.9583 232.832 31.9583H225.078C224.843 31.9583 224.608 31.9583 224.373 31.7233C224.138 31.4883 224.138 31.2533 224.138 31.0184C224.138 29.3734 223.433 28.1985 221.788 27.0236C220.378 25.8486 218.263 25.3787 215.443 25.3787C213.093 25.3787 211.214 25.8486 209.569 26.7886C208.159 27.7285 207.454 28.9035 207.454 30.3134C207.454 31.7233 208.159 32.8983 209.569 33.6032C210.979 34.3082 213.328 35.2481 216.618 35.9531L218.498 36.4231C221.788 37.363 224.373 38.303 226.488 39.4779C228.603 40.4179 230.482 41.8278 232.127 43.7077C233.537 45.3526 234.477 47.7025 234.477 50.5223C234.477 54.7521 232.832 58.2769 229.308 60.6268C226.253 63.2116 221.788 64.3866 216.148 64.3866ZM266.906 64.6216C262.441 64.6216 258.446 63.6816 254.921 62.0367C251.396 60.1568 248.812 57.8069 246.932 54.5171C245.052 51.2273 244.112 47.7025 244.112 43.4727V21.1489C244.112 16.9191 245.052 13.1593 246.932 10.1045C248.812 6.81464 251.396 4.46476 254.921 2.58486C258.446 0.939951 262.441 0 266.906 0C271.37 0 275.365 0.939951 278.655 2.58486C281.945 4.22978 284.765 6.57965 286.645 9.63449C288.524 12.6893 289.464 16.2141 289.464 20.2089C289.464 20.4439 289.229 20.6789 288.994 20.9139C288.759 21.1489 288.524 21.1489 288.289 21.1489L280.065 21.6189C279.36 21.6189 278.89 21.3839 278.89 20.6789C278.89 17.1541 277.715 14.3342 275.6 11.9844C273.485 9.86948 270.43 8.69454 266.906 8.69454C263.146 8.69454 260.326 9.86948 257.976 11.9844C255.626 14.0993 254.686 16.9191 254.686 20.6789V43.7077C254.686 47.2325 255.861 50.0523 257.976 52.1672C260.091 54.2821 263.146 55.4571 266.906 55.4571C270.665 55.4571 273.485 54.5171 275.6 52.4022C277.95 50.2873 278.89 47.4675 278.89 43.7077C278.89 43.0027 279.36 42.7677 280.065 42.7677L288.289 43.2377C288.524 43.2377 288.759 43.2377 288.994 43.4727C289.229 43.7077 289.464 43.9427 289.464 44.1777C289.464 48.1724 288.524 51.9322 286.645 54.9871C284.765 58.0419 282.18 60.3918 278.655 62.0367C275.365 63.9166 271.37 64.6216 266.906 64.6216ZM302.154 63.9166C301.919 63.9166 301.684 63.9166 301.449 63.6816C301.214 63.4466 301.214 63.2116 301.214 62.9767V1.64491C301.214 1.40993 301.214 1.17494 301.449 0.939951C301.684 0.704964 301.919 0.469977 302.154 0.469977H310.378C310.613 0.469977 310.848 0.704964 311.083 0.939951C311.318 1.17494 311.553 1.40993 311.553 1.64491V62.9767C311.553 63.2116 311.318 63.4466 311.083 63.6816C310.848 63.9166 310.613 63.9166 310.378 63.9166H302.154ZM343.746 64.6216C339.047 64.6216 334.817 63.4466 331.527 61.0968C328.237 58.7469 325.652 55.2221 324.478 50.9923C323.538 47.7025 322.833 44.1777 322.833 40.6528C322.833 36.893 323.303 33.3682 324.243 30.3134C325.652 26.0836 328.002 22.7938 331.527 20.4439C335.052 18.094 339.047 16.9191 343.981 16.9191C348.681 16.9191 352.441 18.094 355.731 20.4439C359.021 22.7938 361.606 26.0836 362.78 30.3134C363.955 33.1332 364.425 36.6581 364.425 40.6528C364.425 44.4126 363.955 47.9375 362.78 50.9923C361.371 55.2221 359.021 58.7469 355.731 61.0968C352.441 63.4466 348.446 64.6216 343.746 64.6216ZM343.746 55.692C346.096 55.692 347.976 54.9871 349.386 53.8121C351.031 52.6372 352.206 50.7573 352.911 48.4074C353.616 46.5275 353.851 43.9427 353.851 40.8878C353.851 37.598 353.616 35.0131 352.911 33.3682C352.206 31.0184 351.031 29.3734 349.386 28.1985C347.741 27.0236 345.861 26.3186 343.512 26.3186C341.162 26.3186 339.282 27.0236 337.637 28.1985C335.992 29.3734 334.817 31.2533 334.112 33.3682C333.407 35.4831 333.172 38.068 333.172 40.8878C333.172 43.7077 333.407 46.2925 334.112 48.4074C334.817 50.7573 335.992 52.4022 337.637 53.8121C339.282 54.9871 341.397 55.692 343.746 55.692ZM402.963 18.799C402.963 18.564 402.963 18.329 403.198 18.094C403.433 17.8591 403.668 17.6241 403.903 17.6241H412.128C412.363 17.6241 412.598 17.8591 412.833 18.094C413.068 18.329 413.303 18.564 413.303 18.799V62.9767C413.303 63.2116 413.068 63.4466 412.833 63.6816C412.598 63.9166 412.363 63.9166 412.128 63.9166H403.903C403.668 63.9166 403.433 63.9166 403.198 63.6816C402.963 63.4466 402.963 63.2116 402.963 62.9767V60.1568C402.963 59.9218 402.963 59.9218 402.728 59.6868C402.493 59.6868 402.493 59.6868 402.258 59.9218C399.673 63.2116 396.149 64.6216 391.214 64.6216C386.514 64.6216 382.754 63.2116 379.7 60.6268C376.645 58.0419 375 54.2821 375 49.3474V18.799C375 18.564 375 18.329 375.235 18.094C375.47 17.8591 375.705 17.6241 375.94 17.6241H384.164C384.399 17.6241 384.634 17.8591 384.869 18.094C385.104 18.329 385.339 18.564 385.339 18.799V46.2925C385.339 49.1124 386.044 51.4623 387.454 53.1072C388.864 54.7521 390.979 55.692 393.799 55.692C396.619 55.692 398.734 54.7521 400.378 53.1072C402.023 51.4623 402.728 49.1124 402.728 46.2925V18.799H402.963ZM454.661 1.64491C454.661 1.40993 454.661 1.17494 454.896 0.939951C455.131 0.704964 455.366 0.469977 455.601 0.469977H463.825C464.06 0.469977 464.295 0.704964 464.53 0.939951C464.765 1.17494 465 1.40993 465 1.64491V62.9767C465 63.2116 464.765 63.4466 464.53 63.6816C464.295 63.9166 464.06 63.9166 463.825 63.9166H455.601C455.366 63.9166 455.131 63.9166 454.896 63.6816C454.661 63.4466 454.661 63.2116 454.661 62.9767V60.1568C454.661 59.9218 454.661 59.9218 454.426 59.6868C454.191 59.6868 454.191 59.6868 453.956 59.9218C451.371 62.9767 447.846 64.6216 443.616 64.6216C439.386 64.6216 435.627 63.4466 432.807 61.3317C429.752 58.9819 427.637 55.927 426.462 51.9322C425.287 48.6424 424.817 44.8826 424.817 40.6528C424.817 36.4231 425.287 32.6633 426.462 29.6084C427.872 25.6136 429.987 22.5588 432.807 20.2089C435.862 17.8591 439.386 16.9191 443.851 16.9191C448.081 16.9191 451.371 18.329 454.191 21.3839C454.426 21.6189 454.426 21.6189 454.661 21.6189C454.896 21.6189 454.896 21.3839 454.896 21.1489V1.64491H454.661ZM452.546 51.2273C453.956 48.6424 454.661 45.3526 454.661 40.6528C454.661 35.9531 453.956 32.4283 452.311 29.8434C450.666 27.2586 448.316 25.8486 445.496 25.8486C442.441 25.8486 440.091 27.0236 438.211 29.6084C436.332 32.1933 435.392 35.9531 435.392 40.6528C435.392 44.8826 436.097 48.4074 437.507 50.9923C439.151 53.8121 441.736 55.2221 445.261 55.2221C448.316 55.692 450.666 54.0471 452.546 51.2273Z" fill="#1E90FF"/>
</svg>
